<?xml version="1.0" encoding="UTF-8"?>
<!DOCTYPE svg PUBLIC "-//W3C//DTD SVG 1.1//EN" "http://www.w3.org/Graphics/SVG/1.1/DTD/svg11.dtd">
<!-- Creator: CorelDRAW 2019 (64-Bit) -->
<svg xmlns="http://www.w3.org/2000/svg" xml:space="preserve" width="1559px" height="2160px" version="1.1" style="shape-rendering:geometricPrecision; text-rendering:geometricPrecision; image-rendering:optimizeQuality; fill-rule:evenodd; clip-rule:evenodd"
viewBox="0 0 1559 2160.49"
 xmlns:xlink="http://www.w3.org/1999/xlink"
 xmlns:xodm="http://www.corel.com/coreldraw/odm/2003">
 <defs>
  <style type="text/css">
   <![CDATA[
    .fil5 {fill:#FEFEFE}
    .fil7 {fill:black}
    .fil12 {fill:#00853A}
    .fil3 {fill:#00923F}
    .fil11 {fill:#016E30}
    .fil2 {fill:#28166F}
    .fil9 {fill:#7F7A00}
    .fil4 {fill:#DA251D}
    .fil0 {fill:#F8C300}
    .fil10 {fill:#F9C900}
    .fil6 {fill:#FFF500}
    .fil8 {fill:#332C2B;fill-rule:nonzero}
    .fil1 {fill:black;fill-rule:nonzero}
    .fil14 {fill:#DA251D;fill-rule:nonzero}
    .fil13 {fill:#FFF500;fill-rule:nonzero}
   ]]>
  </style>
 </defs>
 <g id="Layer_x0020_1">
  <metadata id="CorelCorpID_0Corel-Layer"/>
  <path class="fil0" d="M7.62 7.63l1543.76 0 0 1446.53c0,342.77 -491.48,549.83 -771.88,697.74 -280.4,-147.91 -771.88,-354.97 -771.88,-697.74l0 -1446.53z"/>
  <path class="fil1" d="M7.62 0l1551.38 0 0 1454.16c0,309.39 -390.82,508.08 -675.81,652.97 -35.75,18.18 -69.86,35.52 -100.15,51.5l-3.54 1.86 -3.54 -1.86c-30.29,-15.98 -64.4,-33.32 -100.15,-51.5 -284.99,-144.89 -675.81,-343.58 -675.81,-652.97l0 -1454.16 7.62 0zm1536.13 15.25l-1528.5 0 0 1438.91c0,300.04 385.99,496.29 667.47,639.39 33.69,17.13 65.89,33.5 96.78,49.75 30.89,-16.25 63.09,-32.62 96.78,-49.75 281.48,-143.1 667.47,-339.35 667.47,-639.39l0 -1438.91z"/>
  <path class="fil2" d="M1015.22 323.98l471.45 0 0 1098.8c0,229.9 -241.34,393.16 -471.45,517.31l0 -1616.11z"/>
  <path class="fil1" d="M1015.22 316.36l479.07 0 0 1106.42c0,117.33 -61.3,217.39 -151.81,303.82 -89.7,85.64 -208.11,157.85 -323.65,220.19l-11.23 6.06 0 -1636.49 7.62 0zm463.82 15.25l-456.19 0 0 1595.69c110.96,-60.41 223.54,-129.99 309.14,-211.72 87.67,-83.72 147.05,-180.25 147.05,-292.8l0 -1091.17z"/>
  <path class="fil3" d="M72.33 323.98l471.45 0 0 1616.11c-230.11,-124.15 -471.45,-287.41 -471.45,-517.31l0 -1098.8z"/>
  <path class="fil1" d="M72.33 316.36l479.07 0 0 1636.49 -11.23 -6.06c-115.54,-62.34 -233.95,-134.54 -323.65,-220.19 -90.51,-86.42 -151.81,-186.48 -151.81,-303.82l0 -1106.42 7.62 0zm463.82 15.25l-456.19 0 0 1091.17c0,112.56 59.38,209.09 147.05,292.8 85.6,81.73 198.18,151.31 309.14,211.72l0 -1595.69z"/>
  <path class="fil4" d="M543.78 323.98l471.44 0 0 1616.11c-84.2,45.42 -166.9,85.62 -235.72,121.92 -68.82,-36.3 -151.52,-76.5 -235.72,-121.92l0 -1616.11z"/>
  <path class="fil1" d="M543.78 316.36l479.07 0 0 1628.26 -4.02 2.17c-49.82,26.87 -98.44,51.59 -144.06,74.79 -32.78,16.67 -64.06,32.57 -91.73,47.16l-3.54 1.87 -3.54 -1.87c-27.67,-14.59 -58.95,-30.49 -91.73,-47.16 -45.62,-23.2 -94.24,-47.92 -144.06,-74.79l-4.02 -2.17 0 -1628.26 7.63 0zm463.82 15.25l-456.2 0 0 1603.94c47.48,25.53 95.04,49.72 139.74,72.44 30.72,15.63 60.09,30.56 88.36,45.42 28.27,-14.86 57.64,-29.79 88.36,-45.42 44.7,-22.72 92.26,-46.91 139.74,-72.44l0 -1603.94z"/>
  <rect class="fil5" x="72.33" y="83.83" width="1414.33" height="191.87"/>
  <path class="fil1" d="M72.33 76.21l1421.96 0 0 207.11 -1429.58 0 0 -207.11 7.62 0zm1406.71 15.25l-1399.08 0 0 176.61 1399.08 0 0 -176.61z"/>
  <rect class="fil6" x="760.33" y="539.61" width="38.33" height="982.42" rx="19.17" ry="466.67"/>
  <path class="fil7" d="M779.5 524.4c9.48,0 18.09,3.87 24.32,10.1 6.23,6.22 10.1,14.83 10.1,24.31l0 944.1c0,9.49 -3.87,18.09 -10.1,24.32 -6.23,6.23 -14.84,10.1 -24.32,10.1 -9.48,0 -18.09,-3.87 -24.32,-10.1 -6.23,-6.23 -10.1,-14.83 -10.1,-24.32l0 -944.1c0,-9.48 3.87,-18.09 10.1,-24.31 6.23,-6.23 14.84,-10.1 24.32,-10.1zm0 15.25c10.54,0 19.17,8.61 19.17,19.16l0 944.1c0,10.55 -8.63,19.17 -19.17,19.17 -10.54,0 -19.17,-8.62 -19.17,-19.17l0 -944.1c0,-10.55 8.63,-19.16 19.17,-19.16z"/>
  <path class="fil8" d="M779.8 385.65l563.71 154 -1128.01 0c187.97,-51.36 375.88,-103.29 564,-154.08l0.3 0.08zm277.08 78.09l-277.38 -75.77 -546.72 149.36 1093.44 0 -269.34 -73.59z"/>
  <path class="fil6" d="M1276.91 554.18c32.61,0 68.43,86.91 -2.23,54.97l-4.59 -2.07c-7.78,11.35 -24.06,15.94 -51.3,2.07l-4.59 -2.33c-11.45,11.67 -34.49,15.93 -59.64,2.33 -11.48,10.27 -32.45,12.77 -53.79,-1.58 -9.04,11.59 -26.86,15.21 -46,-0.21l-8.4 -6.78c-6.62,16.5 -27.75,24.22 -43.03,8.93l-7.09 -7.1c-6.87,18.94 -40.83,21.28 -57.24,2.15 -8.47,17.73 -38.78,17.57 -51.78,-0.13 -7.96,19.27 -36.94,16.11 -50.64,-0.39 -11.08,16.7 -38.98,16.89 -57.08,7 -18.11,9.89 -46.02,9.7 -57.1,-7 -13.7,16.5 -42.68,19.66 -50.64,0.39 -13,17.7 -43.31,17.86 -51.78,0.13 -16.41,19.13 -50.37,16.79 -57.24,-2.15l-7.09 7.1c-15.28,15.29 -36.41,7.57 -43.03,-8.93l-8.4 6.78c-19.14,15.42 -36.96,11.8 -46,0.21 -21.34,14.35 -42.31,11.85 -53.79,1.58 -25.15,13.6 -48.19,9.34 -59.64,-2.33l-4.59 2.33c-27.24,13.87 -43.52,9.28 -51.3,-2.07l-4.59 2.07c-70.66,31.94 -34.83,-54.97 -2.23,-54.97l994.82 0z"/>
  <path class="fil8" d="M1276.91 553.01c13.99,0 28.47,15.26 35.44,30.81 2.88,6.44 4.5,12.96 4.28,18.49 -0.22,5.75 -2.42,10.47 -7.17,13.04 -6.46,3.49 -17.7,2.8 -35.26,-5.14l-3.72 -1.68c-4.4,5.95 -11.17,9.96 -20.62,10.34 -8.35,0.33 -18.81,-2.17 -31.6,-8.68l-3.84 -1.96c-6.3,6.08 -15.71,10.08 -26.87,10.51 -9.86,0.38 -21.13,-2 -32.83,-8.19 -6.29,5.33 -15.11,8.48 -25.18,8.19 -8.84,-0.26 -18.65,-3.18 -28.53,-9.62 -4.69,5.55 -11.4,9.18 -19.29,9.62 -8.03,0.46 -17.29,-2.38 -26.85,-9.83l-8.04 -6.47c-1.47,3.17 -3.47,6 -5.85,8.38 -3.65,3.64 -8.2,6.24 -13.11,7.4 -4.92,1.17 -10.22,0.91 -15.35,-1.15 -3.47,-1.39 -6.86,-3.6 -10,-6.75l-5.86 -5.87c-1.32,2.84 -3.24,5.28 -5.6,7.31 -4.39,3.77 -10.34,6.11 -16.8,6.91 -6.41,0.79 -13.38,0.06 -19.86,-2.29 -5.61,-2.03 -10.87,-5.28 -15.14,-9.81 -1.59,2.76 -3.72,5.07 -6.21,6.9 -4.54,3.33 -10.31,5.14 -16.35,5.43 -6.01,0.29 -12.31,-0.92 -17.96,-3.62 -4.26,-2.04 -8.15,-4.92 -11.26,-8.64 -1.39,2.72 -3.22,4.96 -5.36,6.73 -4.01,3.33 -9.13,5.08 -14.6,5.41 -5.4,0.33 -11.18,-0.71 -16.58,-2.94 -5.34,-2.2 -10.32,-5.57 -14.26,-9.92 -5.5,7.38 -14.32,11.37 -24.01,12.55 -11.13,1.37 -23.46,-0.98 -33.16,-6.11 -9.7,5.13 -22.04,7.48 -33.18,6.12 -9.68,-1.19 -18.51,-5.18 -24.01,-12.56 -3.94,4.35 -8.92,7.72 -14.26,9.92 -5.4,2.23 -11.18,3.27 -16.58,2.94 -5.47,-0.33 -10.59,-2.08 -14.6,-5.41 -2.14,-1.77 -3.97,-4.01 -5.36,-6.73 -3.11,3.72 -7,6.6 -11.26,8.64 -5.65,2.7 -11.95,3.91 -17.96,3.62 -6.04,-0.29 -11.81,-2.1 -16.35,-5.43 -2.49,-1.83 -4.62,-4.14 -6.21,-6.9 -4.27,4.53 -9.53,7.78 -15.14,9.81 -6.49,2.35 -13.45,3.07 -19.86,2.28 -6.46,-0.79 -12.4,-3.14 -16.8,-6.9 -2.36,-2.03 -4.28,-4.47 -5.6,-7.31l-5.86 5.87c-3.14,3.15 -6.53,5.36 -10,6.75 -5.13,2.06 -10.43,2.32 -15.35,1.15 -4.91,-1.16 -9.46,-3.76 -13.11,-7.4 -2.38,-2.38 -4.38,-5.21 -5.85,-8.38l-8.03 6.47c-9.57,7.45 -18.83,10.29 -26.86,9.83 -7.89,-0.44 -14.6,-4.07 -19.29,-9.62 -9.88,6.44 -19.69,9.36 -28.53,9.62 -10.07,0.29 -18.89,-2.86 -25.18,-8.19 -11.7,6.19 -22.97,8.57 -32.83,8.19 -11.16,-0.43 -20.57,-4.43 -26.87,-10.51l-3.84 1.96c-12.79,6.51 -23.25,9.01 -31.6,8.68 -9.45,-0.38 -16.22,-4.39 -20.62,-10.34l-3.72 1.68c-17.56,7.94 -28.8,8.63 -35.26,5.14 -4.75,-2.57 -6.94,-7.29 -7.17,-13.04 -0.22,-5.53 1.4,-12.05 4.28,-18.49 6.97,-15.55 21.45,-30.81 35.44,-30.81l994.82 0zm33.32 31.75c-6.66,-14.85 -20.3,-29.42 -33.32,-29.42l-994.82 0c-13.01,0 -26.66,14.57 -33.32,29.42 -2.75,6.13 -4.29,12.29 -4.08,17.46 0.19,4.94 2.01,8.96 5.94,11.09 5.87,3.16 16.41,2.38 33.21,-5.21l5.48 -2.48 0.55 0.81c3.97,5.8 10.31,9.75 19.37,10.12 7.96,0.32 18.03,-2.11 30.44,-8.43l5.35 -2.72 0.6 0.6c5.89,6.01 14.99,9.99 25.91,10.42 9.68,0.38 20.78,-2.03 32.35,-8.29l0.71 -0.38 0.61 0.54c5.89,5.26 14.4,8.42 24.19,8.13 8.69,-0.26 18.39,-3.23 28.19,-9.81l0.89 -0.6 0.93 1.18c4.29,5.32 10.57,8.82 18,9.24 7.51,0.42 16.22,-2.28 25.29,-9.34l10.42 -8.39 0.58 1.45c1.39,3.46 3.45,6.52 5.96,9.03 3.33,3.33 7.51,5.72 12,6.78 4.49,1.06 9.31,0.83 13.96,-1.04 3.19,-1.28 6.31,-3.32 9.21,-6.23l8.39 -8.39 0.62 1.71c1.14,3.15 3.09,5.83 5.61,7.99 4.04,3.46 9.55,5.62 15.57,6.36 6.07,0.75 12.66,0.06 18.8,-2.16 5.74,-2.08 11.11,-5.52 15.29,-10.39l1.16 -1.35 0.76 1.6c1.47,3.07 3.65,5.59 6.3,7.54 4.15,3.05 9.48,4.71 15.08,4.98 5.64,0.27 11.56,-0.86 16.85,-3.39 4.49,-2.14 8.53,-5.29 11.58,-9.44l1.22 -1.66 0.78 1.9c1.3,3.15 3.21,5.67 5.52,7.6 3.61,3 8.26,4.57 13.25,4.87 5.07,0.31 10.49,-0.67 15.58,-2.76 5.44,-2.25 10.51,-5.79 14.33,-10.4l1 -1.19 0.86 1.3c5,7.54 13.66,11.59 23.23,12.76 10.9,1.33 22.97,-1.03 32.34,-6.14l0.56 -0.3 0.55 0.3c9.37,5.11 21.44,7.47 32.33,6.14 9.58,-1.17 18.23,-5.22 23.23,-12.76l0.86 -1.3 1 1.19c3.82,4.61 8.89,8.15 14.33,10.4 5.08,2.09 10.51,3.07 15.58,2.76 4.99,-0.3 9.64,-1.87 13.25,-4.87 2.31,-1.93 4.22,-4.45 5.52,-7.6l0.79 -1.9 1.21 1.66c3.05,4.15 7.09,7.3 11.58,9.44 5.29,2.53 11.21,3.66 16.85,3.39 5.6,-0.27 10.93,-1.93 15.08,-4.98 2.65,-1.95 4.83,-4.47 6.3,-7.54l0.77 -1.6 1.15 1.35c4.18,4.87 9.55,8.31 15.29,10.39 6.14,2.22 12.73,2.91 18.8,2.16 6.02,-0.74 11.54,-2.9 15.57,-6.36 2.51,-2.16 4.47,-4.84 5.61,-7.99l0.62 -1.71 8.39 8.39c2.9,2.9 6.02,4.95 9.21,6.23 4.66,1.87 9.48,2.1 13.96,1.04 4.49,-1.06 8.67,-3.45 12,-6.78 2.51,-2.51 4.57,-5.57 5.96,-9.03l0.58 -1.45c3.47,2.8 6.93,5.64 10.43,8.39 9.06,7.06 17.77,9.76 25.28,9.34 7.43,-0.42 13.71,-3.92 18,-9.24l0.94 -1.18 0.88 0.6c9.8,6.58 19.5,9.55 28.19,9.81 9.79,0.29 18.3,-2.87 24.19,-8.13l0.61 -0.54 0.71 0.38c11.57,6.26 22.67,8.67 32.35,8.29 10.92,-0.43 20.02,-4.41 25.91,-10.42l0.6 -0.6 5.35 2.72c12.41,6.32 22.48,8.75 30.44,8.43 9.06,-0.37 15.4,-4.32 19.37,-10.12l0.55 -0.81 5.48 2.48c16.8,7.59 27.34,8.37 33.21,5.21 3.93,-2.13 5.75,-6.15 5.94,-11.09 0.21,-5.17 -1.33,-11.33 -4.08,-17.46z"/>
  <path class="fil9" d="M1323.74 538.93c26.66,21 21.38,86.9 -49.27,54.97l-4.59 -2.07c-7.77,11.35 -24.05,15.94 -51.27,2.07l-4.6 -2.34c-11.44,11.68 -34.47,15.94 -59.61,2.34 -11.47,10.26 -32.43,12.77 -53.77,-1.58 -9.03,11.59 -26.85,15.21 -45.97,-0.22l-8.4 -6.77c-6.62,16.5 -27.74,24.22 -43.01,8.92l-7.09 -7.1c-6.86,18.95 -40.82,21.29 -57.21,2.16 -8.47,17.73 -38.78,17.57 -51.77,-0.13 -7.95,19.27 -36.92,16.11 -50.62,-0.39 -11.07,16.7 -38.96,16.88 -57.05,7 -18.1,9.89 -46,9.7 -57.07,-7 -13.7,16.5 -42.67,19.66 -50.62,0.39 -12.99,17.7 -43.3,17.86 -51.77,0.13 -16.39,19.13 -50.35,16.79 -57.21,-2.16l-7.09 7.1c-15.27,15.3 -36.39,7.58 -43.01,-8.92l-8.4 6.77c-19.12,15.43 -36.94,11.81 -45.97,0.22 -21.34,14.35 -42.3,11.84 -53.77,1.58 -25.14,13.6 -48.17,9.34 -59.61,-2.34l-4.6 2.34c-27.22,13.87 -43.5,9.28 -51.27,-2.07l-4.59 2.07c-70.65,31.93 -75.93,-33.97 -49.27,-54.97l1088.48 0z"/>
  <path class="fil6" d="M280.68 587.92c-78.63,31.7 -76.93,-43.86 -40.24,-53.88l539.06 -147.27 -498.82 201.15z"/>
  <path class="fil8" d="M281.24 589.33c-27.44,11.06 -45.45,9.23 -55.75,1.62 -4.66,-3.44 -7.75,-8.05 -9.41,-13.19 -1.66,-5.1 -1.92,-10.71 -0.96,-16.21 2.25,-12.88 11.27,-25.25 24.92,-28.98l539.06 -147.26c0.81,-0.22 1.64,0.25 1.86,1.06 0.21,0.75 -0.19,1.53 -0.9,1.81l-498.82 201.15zm-53.94 -0.82c9.53,7.04 26.51,8.6 52.81,-2l474.67 -191.42 -513.94 140.41c-12.42,3.39 -20.65,14.73 -22.72,26.57 -0.88,5.03 -0.64,10.14 0.85,14.75 1.48,4.56 4.21,8.65 8.33,11.69z"/>
  <path class="fil6" d="M336.97 587.92c-69.74,31.7 -68.23,-43.86 -35.69,-53.88l478.22 -147.27 -442.53 201.15z"/>
  <path class="fil8" d="M337.6 589.31c-23.25,10.57 -38.92,9.41 -48.32,2.7 -4.51,-3.23 -7.57,-7.72 -9.32,-12.8 -1.73,-5.02 -2.18,-10.63 -1.52,-16.19 1.61,-13.39 9.78,-26.55 22.4,-30.44l478.21 -147.27c0.81,-0.24 1.66,0.21 1.91,1.01 0.22,0.74 -0.15,1.53 -0.84,1.84l-442.52 201.15zm-46.55 0.22c8.58,6.13 23.21,7.04 45.3,-3l420.88 -191.31 -455.5 140.27c-11.39,3.51 -18.79,15.57 -20.26,27.89 -0.62,5.11 -0.2,10.26 1.38,14.84 1.55,4.52 4.24,8.49 8.2,11.31z"/>
  <path class="fil6" d="M404.85 586.31c-59.15,31.51 -109.06,-25.52 -30.21,-53.88l404.86 -145.66 -374.65 199.54z"/>
  <path class="fil8" d="M405.57 587.65c-23.11,12.31 -44.92,11.36 -58.54,3.87 -5.49,-3.01 -9.69,-7.11 -12.14,-11.85 -2.49,-4.8 -3.19,-10.24 -1.67,-15.87l0.03 -0.09c3.13,-11.39 15.5,-23.58 40.87,-32.71l404.87 -145.66c0.79,-0.28 1.66,0.13 1.94,0.92 0.27,0.74 -0.08,1.56 -0.79,1.89l-374.57 199.5zm-57.07 1.2c12.84,7.06 33.55,7.89 55.64,-3.88l356.07 -189.65 -385.06 138.54c-24.34,8.75 -36.09,20.15 -38.97,30.69l-0.02 0.05c-1.31,4.86 -0.71,9.55 1.43,13.67 2.17,4.2 5.94,7.85 10.91,10.58z"/>
  <path class="fil6" d="M456.65 586.02c-51.01,31.48 -100.55,-22.83 -26.03,-53.88l348.88 -145.37 -322.85 199.25z"/>
  <path class="fil8" d="M457.45 587.31c-19.35,11.95 -38.59,11.82 -51.26,5.32 -5.35,-2.75 -9.55,-6.63 -12.14,-11.23 -2.61,-4.64 -3.6,-10.02 -2.47,-15.69 2.32,-11.7 13.72,-24.67 38.45,-34.98l348.89 -145.37c0.77,-0.32 1.67,0.05 1.99,0.83 0.29,0.72 -0.01,1.54 -0.68,1.91l-322.78 199.21zm-49.88 2.61c11.85,6.08 29.93,6.13 48.28,-5.19l306.52 -189.17 -331.17 137.98c-23.65,9.86 -34.49,21.96 -36.63,32.76 -0.98,4.92 -0.13,9.59 2.14,13.62 2.3,4.08 6.06,7.54 10.86,10z"/>
  <path class="fil6" d="M502.2 586.3c-43.82,31.54 -80.86,-25.45 -22.36,-53.88l299.66 -145.65 -277.3 199.53z"/>
  <path class="fil8" d="M503.09 587.54c-15.2,10.93 -29.7,11.54 -39.97,6.43 -4.85,-2.42 -8.77,-6.12 -11.38,-10.63 -2.61,-4.5 -3.91,-9.81 -3.56,-15.44 0.8,-12.47 9.8,-26.55 31,-36.85l299.66 -145.65c0.75,-0.36 1.67,-0.05 2.03,0.71 0.34,0.7 0.09,1.53 -0.55,1.94l-277.23 199.49zm-38.61 3.7c9.36,4.66 22.69,4.01 36.83,-6.17l262.94 -189.2 -283.75 137.92c-20.04,9.74 -28.54,22.81 -29.28,34.3 -0.32,5.01 0.84,9.73 3.15,13.73 2.31,3.99 5.8,7.27 10.11,9.42z"/>
  <path class="fil6" d="M554.01 588.24c-28.14,25.14 -75.98,-18.88 -18.19,-53.88l243.68 -147.59 -225.49 201.47z"/>
  <path class="fil8" d="M555.02 589.37c-9.84,8.79 -21.98,9.55 -31.57,5.29l-0.13 -0.06c-4.55,-2.04 -8.53,-5.22 -11.4,-9.19l-0.06 -0.1c-2.88,-4.02 -4.66,-8.86 -4.79,-14.19 -0.3,-11.59 7.18,-25.47 27.97,-38.06l243.67 -147.59c0.72,-0.43 1.66,-0.2 2.09,0.51 0.39,0.65 0.24,1.49 -0.33,1.95l-225.45 201.44zm-30.35 2.51c8.6,3.81 19.49,3.12 28.33,-4.77l213.25 -190.54 -229.64 139.09c-19.69,11.92 -26.78,24.77 -26.51,35.39 0.13,4.68 1.69,8.95 4.23,12.49l0.05 0.08c2.57,3.55 6.13,6.39 10.18,8.21l0.11 0.05z"/>
  <path class="fil6" d="M620.55 581.83c-24.98,30.66 -102.42,8.55 -31.35,-46.82l190.3 -148.24 -158.95 195.06z"/>
  <path class="fil8" d="M621.73 582.79c-9.89,12.13 -27.64,16.32 -41.75,13.67 -5.89,-1.1 -11.18,-3.41 -15.04,-6.82 -3.96,-3.5 -6.43,-8.16 -6.55,-13.86 -0.2,-10.57 7.83,-24.79 29.88,-41.97l190.29 -148.24c0.67,-0.51 1.62,-0.4 2.14,0.26 0.46,0.59 0.42,1.42 -0.06,1.95l-158.91 195.01zm-41.18 10.68c13.15,2.47 29.68,-1.38 38.82,-12.6l150.46 -184.64 -179.69 139.98c-21.17,16.49 -28.9,29.81 -28.71,39.51 0.1,4.78 2.18,8.69 5.52,11.64 3.44,3.04 8.22,5.11 13.6,6.11z"/>
  <path class="fil6" d="M673.75 579.61c-17.21,31.38 -94.28,17.01 -35.36,-44.81l141.11 -148.03 -105.75 192.84z"/>
  <path class="fil8" d="M675.08 580.34c-6.55,11.95 -21.31,17.58 -34.49,16.79 -5.92,-0.35 -11.55,-2 -16.01,-4.95 -4.55,-3.01 -7.88,-7.36 -9.07,-13.05 -2.21,-10.54 3.02,-25.7 21.78,-45.38l141.11 -148.03c0.58,-0.61 1.54,-0.63 2.15,-0.05 0.51,0.48 0.61,1.24 0.28,1.83l-105.75 192.84zm-34.31 13.75c12.14,0.73 25.7,-4.37 31.64,-15.21l100.15 -182.63 -133.07 139.6c-17.95,18.83 -23.03,33.01 -21.01,42.66 1.02,4.83 3.87,8.55 7.78,11.13 3.99,2.64 9.11,4.13 14.51,4.45z"/>
  <path class="fil6" d="M728.43 572.08c-9.66,35.04 -93.51,37.58 -44,-38.75l95.07 -146.56 -51.07 185.31z"/>
  <path class="fil8" d="M729.86 572.57c-3.66,13.13 -17.17,21.89 -30.64,24.03 -6.28,1 -12.58,0.57 -17.88,-1.5 -5.43,-2.13 -9.83,-5.96 -12.16,-11.73 -4.18,-10.31 -1.61,-26.85 13.97,-50.87l95.08 -146.56c0.45,-0.7 1.4,-0.9 2.1,-0.45 0.56,0.37 0.81,1.06 0.63,1.68l-51.1 185.4zm-31.11 21.03c12.44,-1.98 24.89,-9.95 28.2,-21.87l48.47 -175.88 -89.72 138.31c-14.94,23.04 -17.54,38.59 -13.7,48.07 1.98,4.92 5.77,8.2 10.45,10.03 4.79,1.88 10.54,2.26 16.3,1.34z"/>
  <path class="fil6" d="M796.09 566.86c3.24,35.24 -97.95,46.51 -75.71,-15.42l59.12 -164.67 16.59 180.09z"/>
  <path class="fil8" d="M797.6 566.72c1.11,12.11 -9.04,21.49 -22.59,26.46 -8.42,3.09 -18.19,4.49 -27.29,3.76 -9.21,-0.74 -17.81,-3.65 -23.78,-9.18 -8.01,-7.41 -11.26,-19.36 -4.99,-36.83l59.12 -164.67c0.28,-0.79 1.15,-1.2 1.94,-0.92 0.58,0.2 0.95,0.72 1,1.29l16.59 180.09zm-23.64 23.6c12.32,-4.52 21.58,-12.82 20.61,-23.32l-15.95 -173.27 -56.81 158.22c-5.78,16.11 -2.95,26.98 4.19,33.59 5.42,5.01 13.37,7.68 21.96,8.36 8.67,0.7 17.98,-0.64 26,-3.58z"/>
  <path class="fil6" d="M1278.32 587.92c78.63,31.7 76.93,-43.86 40.24,-53.88l-539.06 -147.27 498.82 201.15z"/>
  <path class="fil8" d="M1278.89 586.51c26.3,10.6 43.28,9.04 52.81,2 4.12,-3.04 6.85,-7.13 8.33,-11.69 1.49,-4.61 1.73,-9.72 0.85,-14.75 -2.07,-11.84 -10.3,-23.18 -22.72,-26.57l-513.94 -140.41 474.67 191.42zm54.62 4.44c-10.3,7.61 -28.31,9.44 -55.75,-1.62l-498.83 -201.15c-0.7,-0.28 -1.1,-1.06 -0.89,-1.81 0.22,-0.81 1.05,-1.28 1.86,-1.06l539.06 147.26c13.65,3.73 22.67,16.1 24.92,28.98 0.96,5.5 0.7,11.11 -0.96,16.21 -1.66,5.14 -4.75,9.75 -9.41,13.19z"/>
  <path class="fil6" d="M1222.03 587.92c69.74,31.7 68.23,-43.86 35.69,-53.88l-478.22 -147.27 442.53 201.15z"/>
  <path class="fil8" d="M1222.65 586.53c22.09,10.04 36.72,9.13 45.3,3 3.96,-2.82 6.65,-6.79 8.2,-11.31 1.58,-4.58 2,-9.73 1.38,-14.84 -1.47,-12.32 -8.87,-24.38 -20.26,-27.89l-455.5 -140.27 420.88 191.31zm47.07 5.48c-9.4,6.71 -25.07,7.87 -48.32,-2.7l-442.52 -201.15c-0.69,-0.31 -1.06,-1.1 -0.84,-1.84 0.25,-0.8 1.1,-1.25 1.91,-1.01l478.21 147.27c12.62,3.89 20.79,17.05 22.4,30.44 0.66,5.56 0.21,11.17 -1.52,16.19 -1.75,5.08 -4.81,9.57 -9.32,12.8z"/>
  <path class="fil6" d="M1154.15 586.31c59.15,31.51 109.06,-25.52 30.21,-53.88l-404.86 -145.66 374.65 199.54z"/>
  <path class="fil8" d="M1154.86 584.97c22.09,11.77 42.8,10.94 55.64,3.88 4.97,-2.73 8.74,-6.38 10.91,-10.58 2.14,-4.12 2.74,-8.81 1.43,-13.67l-0.02 -0.05c-2.88,-10.54 -14.63,-21.94 -38.97,-30.69l-385.06 -138.54 356.07 189.65zm57.11 6.55c-13.62,7.49 -35.43,8.44 -58.54,-3.87l-374.57 -199.5c-0.71,-0.33 -1.06,-1.15 -0.79,-1.89 0.28,-0.79 1.15,-1.2 1.94,-0.92l404.87 145.66c25.37,9.13 37.74,21.32 40.87,32.71l0.03 0.09c1.52,5.63 0.82,11.07 -1.67,15.87 -2.45,4.74 -6.65,8.84 -12.14,11.85z"/>
  <path class="fil6" d="M1102.35 586.02c51.01,31.48 100.55,-22.83 26.03,-53.88l-348.88 -145.37 322.85 199.25z"/>
  <path class="fil8" d="M1103.15 584.73c18.35,11.32 36.43,11.27 48.28,5.19 4.8,-2.46 8.56,-5.92 10.86,-10 2.27,-4.03 3.12,-8.7 2.14,-13.62 -2.14,-10.8 -12.98,-22.9 -36.63,-32.76l-331.17 -137.98 306.52 189.17zm49.66 7.9c-12.67,6.5 -31.91,6.63 -51.26,-5.32l-322.78 -199.21c-0.67,-0.37 -0.97,-1.19 -0.68,-1.91 0.32,-0.78 1.22,-1.15 1.99,-0.83l348.89 145.37c24.73,10.31 36.13,23.28 38.45,34.98 1.13,5.67 0.14,11.05 -2.47,15.69 -2.59,4.6 -6.79,8.48 -12.14,11.23z"/>
  <path class="fil6" d="M1056.8 586.3c43.82,31.54 80.86,-25.45 22.36,-53.88l-299.66 -145.65 277.3 199.53z"/>
  <path class="fil8" d="M1057.69 585.07c14.14,10.18 27.47,10.83 36.83,6.17 4.31,-2.15 7.8,-5.43 10.11,-9.42 2.31,-4 3.47,-8.72 3.15,-13.73 -0.74,-11.49 -9.24,-24.56 -29.28,-34.3l-283.75 -137.92 262.94 189.2zm38.19 8.9c-10.27,5.11 -24.77,4.5 -39.97,-6.43l-277.23 -199.49c-0.64,-0.41 -0.89,-1.24 -0.55,-1.94 0.36,-0.76 1.28,-1.07 2.03,-0.71l299.66 145.65c21.2,10.3 30.2,24.38 31,36.85 0.35,5.63 -0.95,10.94 -3.56,15.44 -2.61,4.51 -6.53,8.21 -11.38,10.63z"/>
  <path class="fil6" d="M1004.99 588.24c28.14,25.14 75.98,-18.88 18.19,-53.88l-243.68 -147.59 225.49 201.47z"/>
  <path class="fil8" d="M1006 587.11c8.84,7.89 19.73,8.58 28.33,4.77l0.11 -0.05c4.05,-1.82 7.61,-4.66 10.18,-8.21l0.05 -0.08c2.54,-3.54 4.1,-7.81 4.23,-12.49 0.27,-10.62 -6.82,-23.47 -26.51,-35.39l-229.64 -139.09 213.25 190.54zm29.55 7.55c-9.59,4.26 -21.73,3.5 -31.57,-5.29l-225.45 -201.44c-0.57,-0.47 -0.72,-1.3 -0.33,-1.95 0.43,-0.71 1.37,-0.94 2.09,-0.51l243.67 147.59c20.79,12.59 28.27,26.47 27.97,38.06 -0.13,5.33 -1.91,10.17 -4.79,14.19l-0.06 0.1c-2.87,3.97 -6.85,7.15 -11.4,9.19l-0.13 0.06z"/>
  <path class="fil6" d="M938.45 581.83c24.98,30.66 102.42,8.55 31.35,-46.82l-190.3 -148.24 158.95 195.06z"/>
  <path class="fil8" d="M939.63 580.87c9.14,11.22 25.67,15.07 38.82,12.6 5.38,-1 10.16,-3.07 13.6,-6.11 3.34,-2.95 5.42,-6.86 5.52,-11.64 0.19,-9.7 -7.54,-23.02 -28.71,-39.51l-179.69 -139.98 150.46 184.64zm39.39 15.59c-14.11,2.65 -31.86,-1.54 -41.75,-13.67l-158.91 -195.01c-0.48,-0.53 -0.52,-1.36 -0.06,-1.95 0.52,-0.66 1.47,-0.77 2.14,-0.26l190.29 148.24c22.05,17.18 30.08,31.4 29.88,41.97 -0.12,5.7 -2.59,10.36 -6.55,13.86 -3.86,3.41 -9.15,5.72 -15.04,6.82z"/>
  <path class="fil6" d="M885.25 579.61c17.21,31.38 94.28,17.01 35.36,-44.81l-141.11 -148.03 105.75 192.84z"/>
  <path class="fil8" d="M886.59 578.88c5.94,10.84 19.5,15.94 31.64,15.21 5.4,-0.32 10.52,-1.81 14.51,-4.45 3.91,-2.58 6.76,-6.3 7.78,-11.13 2.02,-9.65 -3.06,-23.83 -21.01,-42.66l-133.07 -139.6 100.15 182.63zm31.82 18.25c-13.18,0.79 -27.94,-4.84 -34.49,-16.79l-105.76 -192.84c-0.32,-0.59 -0.22,-1.35 0.29,-1.83 0.61,-0.58 1.57,-0.56 2.15,0.05l141.11 148.03c18.76,19.68 23.99,34.84 21.78,45.38 -1.19,5.69 -4.52,10.04 -9.07,13.05 -4.46,2.95 -10.09,4.6 -16.01,4.95z"/>
  <path class="fil6" d="M830.57 572.08c9.66,35.04 93.51,37.58 44,-38.75l-95.07 -146.56 51.07 185.31z"/>
  <path class="fil8" d="M832.05 571.73c3.31,11.92 15.76,19.89 28.2,21.87 5.76,0.92 11.51,0.54 16.3,-1.34 4.68,-1.83 8.47,-5.11 10.45,-10.03 3.84,-9.48 1.24,-25.03 -13.7,-48.07l-89.72 -138.31 48.47 175.88zm27.73 24.87c-13.47,-2.14 -26.98,-10.9 -30.64,-24.03l-51.1 -185.4c-0.18,-0.62 0.07,-1.31 0.63,-1.68 0.7,-0.45 1.65,-0.25 2.1,0.45l95.08 146.56c15.58,24.02 18.15,40.56 13.98,50.87 -2.34,5.77 -6.74,9.6 -12.17,11.73 -5.3,2.07 -11.6,2.5 -17.88,1.5z"/>
  <path class="fil6" d="M762.91 566.86c-3.24,35.24 97.95,46.51 75.71,-15.42l-59.12 -164.67 -16.59 180.09z"/>
  <path class="fil8" d="M764.43 567c-0.97,10.5 8.29,18.8 20.61,23.32 8.02,2.94 17.33,4.28 26,3.58 8.59,-0.68 16.54,-3.35 21.96,-8.36 7.14,-6.61 9.97,-17.48 4.19,-33.59l-56.81 -158.22 -15.95 173.27zm19.56 26.18c-13.55,-4.97 -23.7,-14.35 -22.59,-26.46l16.59 -180.09c0.05,-0.57 0.42,-1.09 1,-1.29 0.79,-0.28 1.66,0.13 1.94,0.92l59.12 164.67c6.27,17.47 3.02,29.42 -4.99,36.83 -5.97,5.53 -14.57,8.44 -23.78,9.18 -9.1,0.73 -18.87,-0.67 -27.29,-3.76z"/>
  <path class="fil6" d="M762.91 566.86c-0.9,9.79 6.26,17.72 16.59,22.76 10.33,-5.04 17.49,-12.97 16.59,-22.76l-16.59 -180.09 -16.59 180.09z"/>
  <path class="fil8" d="M764.43 567c-0.4,4.27 0.9,8.17 3.39,11.59 2.68,3.68 6.78,6.84 11.68,9.32 4.9,-2.48 9,-5.64 11.68,-9.32 2.49,-3.42 3.79,-7.32 3.39,-11.59l-15.07 -163.67 -15.07 163.67zm0.93 13.37c-2.91,-4 -4.42,-8.59 -3.96,-13.65l16.59 -180.09c0.06,-0.71 0.63,-1.31 1.37,-1.37 0.84,-0.08 1.58,0.54 1.65,1.37l16.59 180.09c0.46,5.06 -1.05,9.65 -3.96,13.65 -3.13,4.29 -7.86,7.88 -13.47,10.61 -0.41,0.2 -0.9,0.22 -1.34,0 -5.61,-2.73 -10.34,-6.32 -13.47,-10.61z"/>
  <path class="fil6" d="M779.5 357.07l16.38 19.8 16.38 19.8c0,9.46 -14.67,17.13 -32.76,17.13 -18.09,0 -32.76,-7.67 -32.76,-17.13l16.38 -19.8 16.38 -19.8z"/>
  <path class="fil8" d="M780.67 356.1l33.12 40.02 0 0.55c0,5.33 -3.99,10.09 -10.42,13.45 -6.14,3.21 -14.59,5.2 -23.87,5.2 -9.28,0 -17.73,-1.99 -23.87,-5.2 -6.43,-3.36 -10.42,-8.12 -10.42,-13.45l0 -0.55 34.29 -41.44 1.17 1.42zm14.04 21.74l-15.21 -18.38 -31.22 37.73c0.27,3.92 3.57,7.53 8.76,10.24 5.71,2.99 13.65,4.84 22.46,4.84 8.81,0 16.75,-1.85 22.46,-4.84 5.19,-2.71 8.49,-6.32 8.76,-10.24l-16.01 -19.35z"/>
  <path class="fil6" d="M779.5 624.64c-43.97,25.75 -64.56,55.4 -61.76,88.94 -22.75,-10.82 -30.57,-26.47 -23.47,-46.94 -32.22,12.22 -35.93,39.4 -11.12,81.53 -50.5,30.49 -65.32,-52.27 -137.11,-37.06 23.15,67.23 -6.93,78.46 -43.24,90.55 -30.82,10.26 -73.96,-11.46 -55.58,-49.79 -30.05,-2.45 -36.8,44.07 -73.66,66.6 -41.29,25.23 -76.84,16.11 -75.81,-29.54 -52.16,21.16 -57.18,90.8 13.59,124.18 91.56,43.19 282.86,21.64 381.69,-11.19l86.47 0 86.47 0c98.83,32.83 290.13,54.38 381.69,11.19 70.77,-33.38 65.75,-103.02 13.59,-124.18 1.03,45.65 -34.52,54.77 -75.81,29.54 -36.86,-22.53 -43.61,-69.05 -73.66,-66.6 18.38,38.33 -24.76,60.05 -55.58,49.79 -36.31,-12.09 -66.39,-23.32 -43.24,-90.55 -71.79,-15.21 -86.61,67.55 -137.11,37.06 24.81,-42.13 21.1,-69.31 -11.12,-81.53 7.1,20.47 -0.72,36.12 -23.47,46.94 2.8,-33.54 -17.79,-63.19 -61.76,-88.94z"/>
  <path class="fil8" d="M779.5 627.29c-21.1,12.5 -36.62,25.91 -46.55,40.21 -9.97,14.36 -14.29,29.67 -12.93,45.89l0.33 3.96 -3.58 -1.71c-11.85,-5.63 -19.85,-12.6 -24,-20.89 -3.57,-7.16 -4.26,-15.21 -2.05,-24.15 -1.64,0.76 -3.17,1.57 -4.61,2.41 -8.6,5.06 -13.91,11.82 -15.93,20.25 -2.05,8.6 -0.75,19.06 3.91,31.35 2.62,6.9 6.3,14.38 11.03,22.4l1.14 1.95 -1.93 1.17c-26.47,15.98 -43.34,2.68 -62.87,-12.73 -18.21,-14.36 -38.89,-30.66 -72.42,-24.55 10.92,32.93 8.89,52.55 -0.47,65.54 -9.58,13.3 -26.53,19.26 -45.05,25.43 -13.33,4.44 -28.85,3.15 -41.1,-2.73 -4.72,-2.26 -8.98,-5.22 -12.44,-8.78 -3.51,-3.6 -6.22,-7.85 -7.83,-12.66 -2.44,-7.34 -2.28,-15.94 1.59,-25.54 -13.33,0.74 -21.93,12.98 -32.05,27.43 -9.37,13.36 -20,28.52 -36.94,38.87 -15.8,9.66 -30.87,14.41 -43.51,14.12 -6.28,-0.14 -11.98,-1.52 -16.89,-4.12 -4.95,-2.64 -9.1,-6.53 -12.25,-11.67 -4.07,-6.66 -6.43,-15.44 -6.63,-26.33 -13.93,6.43 -24.04,16.58 -29.66,28.49 -3.2,6.8 -4.96,14.18 -5.13,21.76 -0.17,7.6 1.25,15.44 4.37,23.14 6.92,17.06 22.23,33.44 47.26,45.25 40.77,19.22 101.64,25.51 165.25,23.64 78.22,-2.29 160.5,-16.91 214.76,-34.93l0.38 -0.13 173.6 0 0.38 0.13c54.26,18.02 136.54,32.64 214.76,34.93 63.61,1.87 124.48,-4.42 165.25,-23.64 25.03,-11.81 40.34,-28.2 47.26,-45.25 3.12,-7.7 4.54,-15.54 4.37,-23.14 -0.17,-7.58 -1.92,-14.96 -5.13,-21.76 -5.62,-11.91 -15.73,-22.06 -29.66,-28.49 -0.2,10.89 -2.56,19.66 -6.63,26.32 -3.14,5.14 -7.29,9.03 -12.25,11.67 -4.91,2.61 -10.61,3.99 -16.89,4.13 -12.64,0.29 -27.71,-4.46 -43.51,-14.12 -16.94,-10.35 -27.57,-25.51 -36.94,-38.87 -10.12,-14.45 -18.72,-26.69 -32.05,-27.43 3.87,9.6 4.03,18.2 1.59,25.54 -1.61,4.81 -4.32,9.06 -7.83,12.66 -3.46,3.56 -7.72,6.52 -12.44,8.78 -12.25,5.88 -27.77,7.17 -41.1,2.73 -18.53,-6.17 -35.47,-12.13 -45.05,-25.43 -9.36,-12.98 -11.39,-32.61 -0.47,-65.54 -33.53,-6.11 -54.21,10.19 -72.42,24.55 -19.53,15.41 -36.4,28.71 -62.87,12.73l-1.93 -1.17 1.14 -1.95c4.73,-8.02 8.41,-15.5 11.03,-22.4 4.66,-12.29 5.96,-22.75 3.91,-31.35 -2.02,-8.43 -7.33,-15.18 -15.93,-20.25 -1.44,-0.84 -2.98,-1.65 -4.61,-2.41 2.21,8.94 1.52,16.99 -2.05,24.15 -4.15,8.29 -12.15,15.26 -24,20.89l-3.58 1.71 0.33 -3.96c1.36,-16.22 -2.96,-31.53 -12.93,-45.89 -9.93,-14.3 -25.45,-27.71 -46.55,-40.21zm-50.3 37.59c10.48,-15.08 26.87,-29.16 49.15,-42.21l1.15 -0.67 1.15 0.67c22.28,13.05 38.67,27.13 49.15,42.21 9.78,14.09 14.43,29.05 13.96,44.88 8.99,-4.83 15.12,-10.52 18.39,-17.05 3.63,-7.25 3.77,-15.7 0.43,-25.33l-1.6 -4.6 4.56 1.72c3.54,1.35 6.77,2.88 9.66,4.58 9.72,5.72 15.74,13.43 18.05,23.12 2.27,9.52 0.92,20.86 -4.07,34.02 -2.49,6.57 -5.9,13.61 -10.21,21.11 22.69,12.54 38.05,0.43 55.74,-13.52 19.45,-15.34 41.59,-32.8 78.72,-24.93l2.54 0.53 -0.85 2.44c-11.29,32.79 -9.73,51.75 -0.99,63.88 8.74,12.14 25,17.84 42.78,23.77 12.21,4.06 26.46,2.87 37.7,-2.52 4.24,-2.03 8.05,-4.67 11.14,-7.85 3.05,-3.13 5.4,-6.79 6.77,-10.91 2.35,-7.08 1.88,-15.63 -2.79,-25.36l-1.44 -2.99 3.31 -0.28c17.85,-1.45 27.69,12.57 39.44,29.33 9.11,12.99 19.45,27.73 35.59,37.6 15.05,9.2 29.25,13.72 41.04,13.45 5.54,-0.12 10.54,-1.32 14.83,-3.6 4.24,-2.25 7.8,-5.59 10.5,-10.02 4.06,-6.64 6.23,-15.75 5.97,-27.38l-0.08 -3.46 3.21 1.3c16.67,6.76 28.71,18.34 35.22,32.14 3.47,7.37 5.37,15.37 5.56,23.62 0.18,8.22 -1.34,16.67 -4.7,24.94 -7.32,18.05 -23.38,35.33 -49.55,47.67 -41.46,19.55 -103.06,25.95 -167.32,24.07 -78.47,-2.3 -161.04,-16.96 -215.68,-35.04l-172.26 0c-54.64,18.08 -137.21,32.74 -215.68,35.04 -64.26,1.88 -125.86,-4.52 -167.32,-24.07 -26.17,-12.34 -42.23,-29.61 -49.55,-47.67 -3.36,-8.27 -4.88,-16.72 -4.7,-24.94 0.19,-8.25 2.09,-16.25 5.56,-23.62 6.51,-13.8 18.55,-25.38 35.22,-32.14l3.21 -1.3 -0.08 3.46c-0.26,11.63 1.91,20.74 5.97,27.39 2.7,4.41 6.26,7.75 10.5,10.01 4.29,2.28 9.3,3.48 14.83,3.6 11.79,0.27 25.99,-4.25 41.04,-13.45 16.14,-9.87 26.48,-24.61 35.59,-37.6 11.75,-16.76 21.59,-30.78 39.44,-29.33l3.31 0.28 -1.44 2.99c-4.67,9.73 -5.14,18.28 -2.79,25.36 1.37,4.12 3.72,7.78 6.77,10.91 3.09,3.18 6.9,5.82 11.14,7.85 11.24,5.39 25.49,6.58 37.7,2.52 17.78,-5.93 34.04,-11.63 42.78,-23.77 8.74,-12.13 10.29,-31.09 -0.99,-63.88l-0.84 -2.44 2.53 -0.53c37.13,-7.87 59.27,9.59 78.72,24.93 17.69,13.95 33.05,26.06 55.74,13.52 -4.31,-7.5 -7.72,-14.54 -10.21,-21.11 -4.99,-13.16 -6.34,-24.5 -4.07,-34.02 2.31,-9.69 8.33,-17.4 18.05,-23.12 2.89,-1.7 6.12,-3.23 9.66,-4.58l4.56 -1.72 -1.6 4.6c-3.34,9.63 -3.2,18.08 0.43,25.33 3.27,6.53 9.4,12.22 18.39,17.05 -0.47,-15.83 4.18,-30.79 13.96,-44.88z"/>
  <path class="fil6" d="M684.39 714.81c18.75,39.45 50.46,71.98 95.11,97.59 44.65,-25.61 76.36,-58.14 95.11,-97.59 -14.89,10.4 -29.3,15.76 -43.23,16.06 -0.95,-37.25 -18.24,-64.43 -51.88,-81.52 -33.64,17.09 -50.93,44.27 -51.88,81.52 -13.93,-0.3 -28.34,-5.66 -43.23,-16.06z"/>
  <path class="fil8" d="M690.2 721.29c8.79,16.6 20.01,31.91 33.67,45.92 15.42,15.82 33.97,30.01 55.63,42.56 21.66,-12.55 40.21,-26.73 55.63,-42.56 13.66,-14.01 24.88,-29.32 33.68,-45.92 -5.18,3.1 -10.31,5.59 -15.38,7.47 -7.44,2.77 -14.78,4.24 -22,4.39l-2.27 0.05 -0.06 -2.27c-0.46,-18.21 -4.91,-33.92 -13.32,-47.16 -8.25,-12.95 -20.35,-23.58 -36.28,-31.86 -15.93,8.28 -28.03,18.91 -36.28,31.86 -8.41,13.24 -12.86,28.95 -13.32,47.16l-0.06 2.27 -2.27 -0.05c-7.24,-0.15 -14.58,-1.62 -22,-4.38 -5.07,-1.89 -10.2,-4.38 -15.37,-7.48zm30.4 49.1c-16.03,-16.45 -28.79,-34.65 -38.28,-54.6l-3.7 -7.78 7.07 4.94c7.28,5.08 14.44,8.93 21.47,11.54 6.2,2.29 12.29,3.64 18.26,4.01 0.8,-18.07 5.45,-33.8 13.96,-47.17 8.87,-13.94 21.9,-25.29 39.09,-34.02l1.03 -0.52 1.03 0.52c17.19,8.73 30.22,20.08 39.09,34.02 8.51,13.37 13.16,29.1 13.96,47.17 5.98,-0.37 12.08,-1.71 18.26,-4.01 7.03,-2.61 14.18,-6.46 21.47,-11.54l7.07 -4.94 -3.7 7.78c-9.49,19.95 -22.25,38.15 -38.28,54.6 -16.01,16.42 -35.27,31.09 -57.77,43.99l-1.13 0.66 -1.13 -0.66c-22.51,-12.9 -41.76,-27.57 -57.77,-43.99z"/>
  <path class="fil6" d="M693.03 759.29c19.58,26.54 45.11,51.66 76.59,75.34 -29.45,2 -52.51,10.24 -69.18,24.71 -4.69,-35.83 -19.92,-61.77 -45.7,-77.82 10.5,-10.83 23.26,-18.24 38.29,-22.23z"/>
  <path class="fil8" d="M694.88 757.94c9.71,13.18 20.91,26.01 33.58,38.47 12.69,12.49 26.87,24.62 42.53,36.4l4.9 3.69 -6.12 0.41c-14.51,0.98 -27.43,3.5 -38.77,7.55 -11.27,4.03 -20.96,9.56 -29.06,16.6l-3.2 2.79 -0.56 -4.21c-2.3,-17.61 -7.19,-32.77 -14.65,-45.48 -7.42,-12.63 -17.42,-22.88 -30,-30.7l-2.39 -1.49 1.97 -2.04c5.39,-5.57 11.38,-10.25 17.93,-14.06 6.56,-3.81 13.71,-6.74 21.41,-8.79l1.5 -0.4 0.93 1.26zm30.38 41.72c-12.45,-12.25 -23.5,-24.84 -33.13,-37.76 -6.74,1.92 -13.01,4.56 -18.8,7.91 -5.4,3.14 -10.4,6.92 -14.97,11.32 12.07,8 21.78,18.25 29.11,30.73 7.18,12.24 12.07,26.62 14.65,43.13 7.87,-6.19 16.99,-11.14 27.35,-14.84 10.14,-3.62 21.49,-6.06 34.05,-7.3 -13.96,-10.77 -26.72,-21.84 -38.26,-33.19z"/>
  <path class="fil6" d="M286.64 825.99c-15.47,42.39 29,97.45 169.24,96.79 72.77,-0.34 147.2,-19.43 214.84,-22.68 15.91,-85.12 -24.99,-137.78 -99.98,-166.76 7.52,99.93 -148.12,122.58 -140.82,45.71 -31.92,17.21 -22.48,56.47 -76.83,68.47 -25.36,5.59 -46.64,1.47 -66.45,-21.53z"/>
  <path class="fil8" d="M287.6 830.47c-1.08,3.93 -1.62,7.96 -1.61,12 0.06,11.4 4.59,23.13 14.24,33.9 9.81,10.94 24.9,20.9 45.96,28.59 26.64,9.72 62.75,15.76 109.68,15.54 40.18,-0.18 81.01,-6.14 120.9,-11.95 31.46,-4.58 62.35,-9.09 92.04,-10.63 7.05,-39.58 1.58,-71.94 -14.03,-97.98 -16.61,-27.71 -44.75,-48.4 -81.55,-63.17 1.5,39.83 -22.52,67.21 -51.42,80.74 -11.94,5.58 -24.72,8.81 -36.87,9.56 -12.23,0.75 -23.87,-1 -33.43,-5.35 -14.7,-6.69 -24.47,-19.41 -24.11,-38.51 -9.98,6.62 -15.37,15.91 -20.92,25.46 -9.56,16.48 -19.58,33.72 -52.9,41.07 -13.04,2.88 -25.07,3.25 -36.43,-0.07 -10.39,-3.04 -20.17,-9.14 -29.55,-19.2zm-6.16 12.02c-0.03,-5.88 1.01,-11.7 3.05,-17.28l1.34 -3.66 2.53 2.94c9.6,11.15 19.52,17.72 30.06,20.8 10.56,3.09 21.86,2.72 34.18,0 31.36,-6.92 40.86,-23.27 49.94,-38.91 6.5,-11.2 12.82,-22.07 26.3,-29.34l3.76 -2.03 -0.41 4.25c-1.83,19.27 7.16,31.91 21.21,38.31 8.86,4.03 19.76,5.65 31.27,4.94 11.59,-0.71 23.81,-3.79 35.21,-9.13 28.24,-13.21 51.56,-40.33 48.59,-79.87l-0.27 -3.6 3.37 1.31c39.36,15.21 69.47,36.92 87.13,66.37 16.41,27.39 22.03,61.37 14.27,102.93l-0.33 1.78 -1.81 0.08c-29.98,1.44 -61.4,6.03 -93.42,10.69 -40.01,5.83 -80.96,11.8 -121.52,11.99 -47.52,0.22 -84.16,-5.93 -111.26,-15.82 -21.8,-7.95 -37.51,-18.35 -47.8,-29.83 -10.44,-11.65 -15.34,-24.43 -15.39,-36.92z"/>
  <path class="fil6" d="M526.27 871.69l0 -19.76c23.41,-10.64 41.94,-22.99 55.59,-37.06 12.3,20.48 27.53,37.37 45.7,50.65 -41.17,2.43 -74.94,4.49 -101.29,6.17z"/>
  <path class="fil8" d="M523.99 871.69l0 -21.23 1.34 -0.62c11.61,-5.27 21.99,-10.96 31.13,-17.05 9.13,-6.09 17.05,-12.6 23.76,-19.51l2.07 -2.12 1.53 2.54c6.06,10.1 12.86,19.33 20.39,27.66 7.51,8.33 15.75,15.78 24.7,22.31l5.13 3.75 -62.55 3.74 -47.5 2.97 0 -2.44zm4.57 -18.3l0 15.87 42.66 -2.65 50.05 -3.01c-7.32,-5.78 -14.14,-12.18 -20.46,-19.18 -7.08,-7.84 -13.55,-16.48 -19.38,-25.88 -6.48,6.37 -13.96,12.39 -22.43,18.04 -9.03,6.01 -19.18,11.62 -30.44,16.81z"/>
  <path class="fil6" d="M352.15 892.02c58.95,-3.9 83.15,24.45 116.07,11.79 -27.8,-13.28 -45.51,-33.87 -53.12,-61.76 -21.27,5.92 -14.39,17.31 -47.79,19.03 -12,0.62 -21.22,21.12 -15.16,30.94z"/>
  <path class="fil8" d="M353.49 889.65c28.63,-1.65 49.04,4.19 66.27,9.12 15.6,4.47 28.54,8.17 42.47,4.57 -11.94,-6.36 -21.9,-14.18 -29.87,-23.45 -8.59,-9.99 -14.87,-21.66 -18.82,-34.99 -6.61,2.17 -10.06,4.98 -13.41,7.69 -6.11,4.97 -11.94,9.7 -32.71,10.77 -1.67,0.08 -3.3,0.66 -4.82,1.6 -3.01,1.86 -5.61,5.08 -7.42,8.77 -1.82,3.72 -2.83,7.88 -2.64,11.56 0.08,1.58 0.39,3.07 0.95,4.36zm65.02 13.52c-17.19,-4.92 -37.59,-10.76 -66.21,-8.87l-1.36 0.09 -0.73 -1.17c-1.37,-2.22 -2.08,-4.88 -2.23,-7.7 -0.22,-4.44 0.96,-9.4 3.11,-13.79 2.17,-4.42 5.35,-8.33 9.11,-10.65 2.16,-1.32 4.52,-2.16 6.99,-2.28 19.28,-0.99 24.55,-5.27 30.06,-9.75 4.07,-3.3 8.27,-6.7 17.25,-9.2l2.2 -0.62 0.6 2.22c3.71,13.61 9.89,25.43 18.52,35.47 8.64,10.05 19.77,18.33 33.38,24.83l4.77 2.28 -4.94 1.91c-17.43,6.7 -32.22,2.47 -50.52,-2.77z"/>
  <path class="fil6" d="M779.5 888.21l-79.05 0c18.63,-17.9 44.98,-28.41 79.05,-31.5 34.07,3.09 60.42,13.6 79.05,31.5l-79.05 0z"/>
  <path class="fil8" d="M779.5 890.5l-84.72 0 4.09 -3.93c9.51,-9.15 21.01,-16.42 34.47,-21.78 13.38,-5.33 28.71,-8.79 45.96,-10.35l0.4 0c17.25,1.56 32.58,5.02 45.96,10.35 13.45,5.36 24.95,12.63 34.47,21.78l4.09 3.93 -84.72 0zm-73.1 -4.57l146.2 0c-8.19,-6.93 -17.73,-12.57 -28.62,-16.91 -12.91,-5.14 -27.75,-8.49 -44.48,-10.02 -16.74,1.53 -31.57,4.88 -44.48,10.02 -10.89,4.34 -20.43,9.98 -28.62,16.91z"/>
  <path class="fil6" d="M865.97 759.29c-19.58,26.54 -45.11,51.66 -76.59,75.34 29.45,2 52.51,10.24 69.18,24.71 4.69,-35.83 19.92,-61.77 45.7,-77.82 -10.5,-10.83 -23.26,-18.24 -38.29,-22.23z"/>
  <path class="fil8" d="M866.87 761.9c-9.63,12.92 -20.68,25.51 -33.13,37.76 -11.54,11.35 -24.3,22.42 -38.26,33.19 12.55,1.25 23.91,3.68 34.05,7.3 10.36,3.7 19.48,8.65 27.35,14.84 2.58,-16.51 7.47,-30.89 14.65,-43.13 7.33,-12.48 17.04,-22.73 29.11,-30.73 -4.57,-4.4 -9.57,-8.18 -14.97,-11.32 -5.79,-3.35 -12.06,-5.99 -18.8,-7.91zm-36.33 34.51c12.67,-12.46 23.87,-25.29 33.58,-38.47l0.93 -1.26 1.5 0.4c7.7,2.05 14.85,4.98 21.41,8.79 6.55,3.81 12.54,8.49 17.93,14.06l1.98 2.04 -2.4 1.49c-12.58,7.82 -22.58,18.07 -30,30.7 -7.46,12.71 -12.35,27.87 -14.65,45.48l-0.55 4.21 -3.21 -2.79c-8.1,-7.04 -17.79,-12.57 -29.06,-16.6 -11.34,-4.05 -24.27,-6.57 -38.77,-7.55l-6.12 -0.41 4.9 -3.69c15.66,-11.78 29.84,-23.91 42.53,-36.4z"/>
  <path class="fil6" d="M1272.36 825.99c15.47,42.39 -29,97.45 -169.24,96.79 -72.77,-0.34 -147.2,-19.43 -214.84,-22.68 -15.91,-85.12 24.99,-137.78 99.98,-166.76 -7.52,99.93 148.12,122.58 140.82,45.71 31.92,17.21 22.48,56.47 76.83,68.47 25.36,5.59 46.64,1.47 66.45,-21.53z"/>
  <path class="fil8" d="M1274.51 825.21c2.04,5.58 3.08,11.4 3.05,17.28 -0.05,12.49 -4.95,25.27 -15.39,36.92 -10.29,11.48 -26,21.88 -47.8,29.83 -27.1,9.89 -63.74,16.04 -111.26,15.82 -40.56,-0.19 -81.51,-6.16 -121.52,-11.99 -32.02,-4.66 -63.44,-9.25 -93.42,-10.69l-1.8 -0.08 -0.34 -1.78c-7.76,-41.56 -2.14,-75.54 14.27,-102.93 17.66,-29.45 47.77,-51.16 87.13,-66.37l3.37 -1.31 -0.27 3.6c-2.97,39.54 20.35,66.66 48.59,79.87 11.4,5.34 23.62,8.42 35.21,9.13 11.51,0.71 22.41,-0.91 31.27,-4.94 14.05,-6.4 23.04,-19.04 21.21,-38.31l-0.41 -4.25 3.76 2.03c13.48,7.27 19.8,18.14 26.3,29.34 9.08,15.64 18.58,31.99 49.94,38.91 12.31,2.72 23.62,3.09 34.18,0 10.54,-3.08 20.46,-9.65 30.06,-20.8l2.54 -2.94 1.33 3.66zm-1.5 17.26c0.01,-4.04 -0.53,-8.07 -1.61,-12 -9.38,10.06 -19.16,16.16 -29.55,19.2 -11.36,3.32 -23.39,2.95 -36.43,0.07 -33.32,-7.35 -43.34,-24.59 -52.9,-41.07 -5.55,-9.55 -10.94,-18.84 -20.92,-25.46 0.36,19.1 -9.41,31.82 -24.11,38.51 -9.56,4.35 -21.2,6.1 -33.43,5.35 -12.15,-0.75 -24.93,-3.98 -36.87,-9.56 -28.9,-13.53 -52.92,-40.91 -51.42,-80.74 -36.8,14.77 -64.94,35.46 -81.55,63.17 -15.61,26.04 -21.08,58.4 -14.03,97.98 29.69,1.54 60.58,6.05 92.04,10.63 39.89,5.81 80.72,11.77 120.9,11.95 46.93,0.22 83.04,-5.82 109.68,-15.54 21.06,-7.69 36.15,-17.65 45.96,-28.59 9.65,-10.77 14.18,-22.5 14.24,-33.9z"/>
  <path class="fil6" d="M1032.73 871.69l0 -19.76c-23.41,-10.64 -41.94,-22.99 -55.59,-37.06 -12.3,20.48 -27.53,37.37 -45.7,50.65 41.17,2.43 74.94,4.49 101.29,6.17z"/>
  <path class="fil8" d="M1030.44 869.26l0 -15.87c-11.26,-5.19 -21.41,-10.8 -30.44,-16.81 -8.47,-5.65 -15.95,-11.67 -22.43,-18.04 -5.84,9.4 -12.3,18.03 -19.38,25.88 -6.32,7 -13.14,13.4 -20.46,19.18l50.04 3.01 42.67 2.65zm4.57 -17.33l0 22.2 -47.51 -2.97 -62.54 -3.74 5.13 -3.75c8.95,-6.54 17.19,-13.98 24.7,-22.31 7.52,-8.33 14.32,-17.56 20.39,-27.66l1.53 -2.54 2.07 2.12c6.71,6.91 14.63,13.42 23.76,19.51 9.14,6.09 19.52,11.78 31.13,17.05l1.34 0.62 0 1.47z"/>
  <path class="fil6" d="M1206.85 892.02c-58.95,-3.9 -83.15,24.45 -116.07,11.79 27.8,-13.28 45.51,-33.87 53.12,-61.76 21.27,5.92 14.39,17.31 47.79,19.03 12,0.62 21.22,21.12 15.16,30.94z"/>
  <path class="fil8" d="M1206.7 894.3c-28.62,-1.89 -49.02,3.95 -66.21,8.87 -18.3,5.24 -33.09,9.47 -50.52,2.77l-4.94 -1.91 4.77 -2.28c13.61,-6.5 24.74,-14.78 33.38,-24.83 8.63,-10.04 14.81,-21.86 18.52,-35.47l0.61 -2.22 2.19 0.62c8.98,2.5 13.18,5.9 17.25,9.2 5.51,4.48 10.78,8.76 30.06,9.75 2.47,0.12 4.83,0.96 6.99,2.28 3.76,2.32 6.94,6.23 9.11,10.65 2.15,4.39 3.33,9.35 3.11,13.79 -0.15,2.82 -0.86,5.48 -2.23,7.7l-0.72 1.17 -1.37 -0.09zm-67.46 4.47c17.23,-4.93 37.64,-10.77 66.27,-9.12 0.56,-1.29 0.87,-2.78 0.95,-4.36 0.19,-3.68 -0.82,-7.84 -2.64,-11.56 -1.81,-3.69 -4.41,-6.91 -7.42,-8.77 -1.52,-0.94 -3.15,-1.52 -4.82,-1.6 -20.77,-1.07 -26.6,-5.8 -32.71,-10.77 -3.35,-2.71 -6.8,-5.52 -13.41,-7.69 -3.95,13.33 -10.23,25 -18.82,34.99 -7.97,9.27 -17.93,17.09 -29.87,23.45 13.93,3.6 26.87,-0.1 42.47,-4.57z"/>
  <path class="fil5" d="M519.79 958.27c117.81,112.56 104.39,161.07 138.25,182.26 19.06,11.92 80.09,-24.9 103.63,-6.04 135.09,108.25 205.09,189.37 209.99,243.37 18.82,-15.88 37.86,-27.05 57.1,-33.51 -25.02,-59.7 -194.68,-188.39 -508.97,-386.08z"/>
  <path class="fil8" d="M541.86 975.79c57.68,58.98 77.56,98.61 90.91,125.24 8.81,17.56 14.7,29.29 26.88,36.91 7.49,4.69 24.03,0.3 41.76,-4.39 23.06,-6.12 48.05,-12.74 62.17,-1.43 67.68,54.23 119.09,101.71 154.2,142.41 33.08,38.34 51.81,70.84 56.19,97.48 8.12,-6.53 16.31,-12.22 24.55,-17.06 8.65,-5.08 17.35,-9.2 26.11,-12.37 -14.19,-29.49 -62.09,-75.2 -143.71,-137.11 -80.42,-60.99 -193.45,-137.56 -339.06,-229.68zm85.48 127.95c-14.6,-29.11 -37.09,-73.94 -109.64,-143.26l-21.8 -20.83 25.51 16.05c157.19,98.86 278.25,180.52 363.18,244.94 85.26,64.67 134.26,112.19 146.99,142.54l1.26 3.01 -3.11 1.04c-9.43,3.17 -18.81,7.49 -28.14,12.96 -9.34,5.49 -18.67,12.15 -27.96,20l-4.46 3.77 -0.53 -5.82c-2.39,-26.35 -20.88,-59.56 -55.46,-99.63 -34.87,-40.42 -86.01,-87.64 -153.42,-141.65 -11.7,-9.38 -35.15,-3.17 -56.8,2.57 -19.05,5.05 -36.82,9.76 -46.52,3.69 -13.62,-8.53 -19.82,-20.88 -29.1,-39.38z"/>
  <path class="fil5" d="M894.69 1077.45l-209.79 150.21 -151.45 124.14 14.9 14.89 160.14 -125.38 192.41 -152.69c70.26,-32.5 126.13,-74.29 167.59,-125.38 -90.68,6.8 -148.61,44.87 -173.8,114.21z"/>
  <path class="fil8" d="M896.47 1079.93l-209.8 150.21 -148.69 121.87 10.62 10.62 157.99 -123.7 192.7 -152.92 0.34 -0.15c34.94,-16.16 66.3,-34.63 94.04,-55.39 25.69,-19.21 48.31,-40.41 67.85,-63.57 -85.24,8.14 -139.9,45.34 -163.97,111.58l-0.32 0.9 -0.76 0.55zm-213.35 145.25l209.05 -149.68c25.81,-69.99 84.51,-108.43 176.1,-115.3l7.03 -0.53 -4.45 5.49c-20.88,25.73 -45.4,49.13 -73.53,70.17 -28.02,20.97 -59.63,39.6 -94.81,55.9l-192.13 152.46 -162.29 127.06 -19.17 -19.17c51.25,-42.05 103.58,-83.72 154.2,-126.4z"/>
  <path class="fil7" d="M900.9 1088.62c62.38,-28.85 113.41,-65.03 153.09,-108.54 -87.56,30.76 -138.59,66.94 -153.09,108.54z"/>
  <ellipse class="fil6" cx="779.5" cy="1147.19" rx="166.35" ry="146.71"/>
  <path class="fil7" d="M779.5 977.61c51.61,0 98.56,18.64 132.73,48.77 34.9,30.79 56.49,73.49 56.49,120.81 0,47.32 -21.59,90.02 -56.49,120.8 -34.17,30.14 -81.12,48.78 -132.73,48.78 -51.68,0 -98.62,-18.61 -132.73,-48.69l-1.37 -1.31c-34.1,-30.69 -55.13,-72.89 -55.13,-119.58 0,-47.32 21.6,-90.02 56.5,-120.81l0.05 -0.04 -0.05 -0.05c34.11,-30.07 81.05,-48.68 132.73,-48.68zm0 22.87c91.87,0 166.35,65.68 166.35,146.71 0,81.02 -74.48,146.71 -166.35,146.71 -91.87,0 -166.35,-65.69 -166.35,-146.71 0,-81.03 74.48,-146.71 166.35,-146.71z"/>
  <ellipse class="fil6" cx="779.5" cy="1147.19" rx="37.83" ry="33.36"/>
  <path class="fil7" d="M779.5 1098.58c14.21,0 27.23,5.2 36.79,13.61l0.03 -0.03c10.04,8.86 16.26,21.24 16.26,35.03 0,13.79 -6.22,26.17 -16.26,35.03l-1.1 0.88c-9.45,7.87 -22.03,12.7 -35.72,12.7 -14.21,0 -27.23,-5.2 -36.79,-13.62l-0.03 0.04c-10.04,-8.86 -16.26,-21.24 -16.26,-35.03 0,-13.79 6.22,-26.17 16.26,-35.03l1.1 -0.88c9.45,-7.88 22.03,-12.7 35.72,-12.7zm0 15.25c20.89,0 37.83,14.93 37.83,33.36 0,18.42 -16.94,33.36 -37.83,33.36 -20.89,0 -37.83,-14.94 -37.83,-33.36 0,-18.43 16.94,-33.36 37.83,-33.36z"/>
  <path class="fil1" d="M448.56 1021.37c-25.31,32.38 -43.37,66.74 -54.45,101.88 -19.07,60.48 -17.43,123.36 3.56,182.51 21.1,59.42 61.71,115.16 120.48,161.1 45.49,35.55 101.88,65.25 168.53,86.27l-5.43 17.44c-68.79,-21.69 -127.12,-52.45 -174.32,-89.34 -61.62,-48.16 -104.26,-106.78 -126.48,-169.39 -22.32,-62.87 -24.06,-129.71 -3.79,-194.02 11.72,-37.17 30.81,-73.48 57.53,-107.67l14.37 11.22z"/>
  <path class="fil1" d="M1105 1021.37c25.31,32.38 43.38,66.74 54.46,101.88 19.07,60.48 17.43,123.36 -3.57,182.51 -21.09,59.42 -61.7,115.16 -120.48,161.1 -45.49,35.55 -101.87,65.25 -168.53,86.27l5.44 17.44c68.78,-21.69 127.11,-52.45 174.32,-89.34 61.61,-48.16 104.25,-106.78 126.48,-169.39 22.32,-62.87 24.06,-129.71 3.78,-194.02 -11.72,-37.17 -30.81,-73.48 -57.53,-107.67l-14.37 11.22z"/>
  <path class="fil6" d="M430 1036.99c36.08,-19.96 25.07,-41.33 46.21,-58.47 -36.08,10.92 -51.49,30.41 -46.21,58.47z"/>
  <path class="fil10" d="M465.35 985.9c-9.65,15.24 -17.64,25.19 -23.97,29.86 3.52,-13.36 11.51,-23.32 23.97,-29.86z"/>
  <path class="fil6" d="M407.33 1066.51c15.87,-43.78 -6.03,-55.18 -0.11,-85.74 -21.5,35.63 -21.46,64.21 0.11,85.74z"/>
  <path class="fil10" d="M403.29 995.18c1.91,20.64 1.83,35.32 -0.23,44.06 -5.54,-14.56 -5.47,-29.25 0.23,-44.06z"/>
  <path class="fil6" d="M393.71 1104.84c6.54,-49.89 -17.25,-57.1 -17.74,-90.78 -13.71,42.52 -7.79,72.78 17.74,90.78z"/>
  <path class="fil10" d="M375.09 1030.2c6.11,21.43 9.05,37 8.83,46.71 -8.41,-14.19 -11.36,-29.76 -8.83,-46.71z"/>
  <path class="fil6" d="M378.58 1125.52c0.18,-50.32 -24.32,-54.46 -29.07,-87.81 -8.22,43.91 1.47,73.18 29.07,87.81z"/>
  <path class="fil10" d="M350.67 1053.83c8.77,20.49 13.66,35.56 14.67,45.22 -10.14,-13.01 -15.03,-28.08 -14.67,-45.22z"/>
  <path class="fil6" d="M370.51 1159.82c-6.71,-49.87 -31.54,-50.62 -40.81,-83.01 -2.14,44.62 11.46,72.29 40.81,83.01z"/>
  <path class="fil10" d="M333.06 1092.62c11.49,19.09 18.39,33.36 20.71,42.79 -11.82,-11.5 -18.73,-25.77 -20.71,-42.79z"/>
  <path class="fil6" d="M366.98 1191.6c-10.99,-49.11 -35.8,-47.71 -47.83,-79.18 1.72,44.64 17.67,71.04 47.83,79.18z"/>
  <path class="fil10" d="M323.86 1127.88c13.1,18.04 21.21,31.65 24.34,40.84 -12.78,-10.43 -20.89,-24.05 -24.34,-40.84z"/>
  <path class="fil6" d="M368.49 1228.42c-14.49,-48.19 -39.14,-45.01 -53.4,-75.53 4.93,44.4 22.73,69.58 53.4,75.53z"/>
  <path class="fil10" d="M320.9 1167.97c14.37,17.04 23.43,30.04 27.21,38.99 -13.49,-9.5 -22.56,-22.49 -27.21,-38.99z"/>
  <path class="fil6" d="M371.01 1262.72c-18.02,-46.98 -42.37,-41.99 -58.85,-71.37 8.21,43.92 27.83,67.71 58.85,71.37z"/>
  <path class="fil10" d="M319.08 1205.96c15.58,15.94 25.59,28.22 30.02,36.86 -14.16,-8.46 -24.17,-20.75 -30.02,-36.86z"/>
  <path class="fil6" d="M379.59 1296.01c-22.23,-45.15 -46.02,-37.96 -65.11,-65.71 12.17,42.98 33.88,64.89 65.11,65.71z"/>
  <path class="fil10" d="M322.7 1244.22c16.97,14.45 28.05,25.77 33.25,33.97 -14.87,-7.14 -25.96,-18.46 -33.25,-33.97z"/>
  <path class="fil6" d="M391.19 1327.28c-29.98,-41.45 -53.61,-30.88 -77.68,-55.58 19.2,40.76 45.09,59.29 77.68,55.58z"/>
  <path class="fil10" d="M324.17 1284.28c19.84,11.84 33.08,21.43 39.74,28.8 -16.55,-4.91 -29.79,-14.51 -39.74,-28.8z"/>
  <path class="fil6" d="M407.83 1355.53c-37.36,-36.53 -60.1,-22.58 -88.77,-43.42 26.13,37.46 55.72,51.93 88.77,43.42z"/>
  <path class="fil10" d="M332.01 1322.97c22.31,8.75 37.46,16.27 45.47,22.57 -17.83,-2.4 -32.99,-9.92 -45.47,-22.57z"/>
  <path class="fil6" d="M425.48 1387.81c-37.36,-36.53 -60.1,-22.58 -88.77,-43.42 26.13,37.46 55.72,51.93 88.77,43.42z"/>
  <path class="fil10" d="M349.66 1355.25c22.31,8.75 37.46,16.27 45.47,22.57 -17.83,-2.4 -32.99,-9.92 -45.47,-22.57z"/>
  <path class="fil6" d="M448.18 1424.63c-37.36,-36.53 -60.1,-22.57 -88.77,-43.42 26.13,37.46 55.72,51.93 88.77,43.42z"/>
  <path class="fil10" d="M372.36 1392.07c22.31,8.75 37.46,16.28 45.47,22.57 -17.83,-2.4 -32.99,-9.92 -45.47,-22.57z"/>
  <path class="fil6" d="M478.95 1456.41c-42.92,-29.81 -63.02,-12.26 -94.76,-28.05 32,32.59 63.59,41.94 94.76,28.05z"/>
  <path class="fil10" d="M398.77 1436.91c23.45,4.92 39.65,9.82 48.59,14.69 -17.98,0.61 -34.18,-4.29 -48.59,-14.69z"/>
  <path class="fil6" d="M521.82 1493.23c-42.92,-29.81 -63.02,-12.26 -94.75,-28.05 31.99,32.59 63.58,41.94 94.75,28.05z"/>
  <path class="fil10" d="M441.64 1473.73c23.45,4.93 39.65,9.82 48.59,14.69 -17.98,0.61 -34.18,-4.29 -48.59,-14.69z"/>
  <path class="fil6" d="M410.36 1074.08c39.47,-10.37 41.38,-34.78 67.27,-46.32 -34.89,1.28 -57.31,16.73 -67.27,46.32z"/>
  <path class="fil10" d="M465.05 1032.25c-15.59,12.72 -27.14,20.57 -34.66,23.56 9.65,-12.47 21.2,-20.32 34.66,-23.56z"/>
  <path class="fil6" d="M394.72 1109.89c48.54,-10.36 50.88,-34.78 82.72,-46.32 -42.9,1.29 -70.48,16.73 -82.72,46.32z"/>
  <path class="fil10" d="M461.97 1068.07c-19.16,12.71 -33.37,20.57 -42.62,23.56 11.87,-12.47 26.07,-20.33 42.62,-23.56z"/>
  <path class="fil6" d="M379.59 1155.29c50.53,-15.67 50.13,-40.2 82.72,-55.2 -45.6,6.03 -73.18,24.43 -82.72,55.2z"/>
  <path class="fil10" d="M446.34 1106.27c-18.93,14.76 -33.14,24.14 -42.65,28.14 11.17,-13.71 25.39,-23.09 42.65,-28.14z"/>
  <path class="fil6" d="M377.57 1194.63c47.44,-23.43 43.18,-47.59 73.01,-67.52 -44.09,13.13 -68.42,35.63 -73.01,67.52z"/>
  <path class="fil10" d="M435.78 1135.72c-16.37,17.56 -28.93,29.05 -37.69,34.5 8.87,-15.3 21.44,-26.8 37.69,-34.5z"/>
  <path class="fil6" d="M379.08 1232.96c45.21,-27.5 38.85,-51.19 66.81,-73.66 -42.77,16.94 -65.04,41.5 -66.81,73.66z"/>
  <path class="fil10" d="M431.91 1169.18c-14.77,18.92 -26.28,31.47 -34.53,37.66 7.5,-16.01 19.01,-28.57 34.53,-37.66z"/>
  <path class="fil6" d="M380.1 1271.8c44.64,-32.86 34.81,-55.59 61.72,-81.34 -43.41,22.09 -63.98,49.2 -61.72,81.34z"/>
  <path class="fil10" d="M428.19 1201.99c-13.31,20.6 -23.96,34.48 -31.96,41.64 5.93,-16.82 16.58,-30.7 31.96,-41.64z"/>
  <path class="fil6" d="M387.15 1306.1c41.99,-36.2 30.44,-58.1 55.29,-85.84 -41.58,25.35 -60.01,53.97 -55.29,85.84z"/>
  <path class="fil10" d="M429.73 1232.8c-11.68,21.56 -21.23,36.21 -28.65,43.97 4.62,-17.23 14.17,-31.88 28.65,-43.97z"/>
  <path class="fil6" d="M405.31 1342.92c37.53,-40.8 23.52,-61.22 45,-91.65 -38.37,29.99 -53.37,60.54 -45,91.65z"/>
  <path class="fil10" d="M439.14 1265.19c-9.11,22.77 -16.91,38.43 -23.38,46.99 2.6,-17.64 10.39,-33.31 23.38,-46.99z"/>
  <path class="fil6" d="M425.99 1379.24c32.58,-44.86 16.32,-63.53 34.15,-96.23 -34.66,34.21 -46.04,66.29 -34.15,96.23z"/>
  <path class="fil10" d="M450.65 1298.13c-6.43,23.66 -12.37,40.12 -17.82,49.36 0.55,-17.82 6.49,-34.27 17.82,-49.36z"/>
  <path class="fil6" d="M450.2 1413.03c28.68,-47.44 10.91,-64.67 25.92,-98.76 -31.66,37.01 -40.3,69.93 -25.92,98.76z"/>
  <path class="fil10" d="M467.94 1330.14c-4.42,24.12 -8.95,41.01 -13.6,50.69 -0.96,-17.81 3.58,-34.71 13.6,-50.69z"/>
  <path class="fil6" d="M473.4 1444.3c22.34,-50.74 2.49,-65.54 12.99,-101.27 -26.63,40.77 -30.96,74.53 -12.99,101.27z"/>
  <path class="fil10" d="M480.31 1359.81c-1.27,24.49 -3.59,41.83 -6.95,52.02 -3.24,-17.53 -0.92,-34.87 6.95,-52.02z"/>
  <path class="fil6" d="M497.62 1471.04c23.64,-50.14 4.18,-65.46 15.6,-100.91 -27.67,40.07 -32.88,73.71 -15.6,100.91z"/>
  <path class="fil10" d="M506.72 1386.75c-1.91,24.45 -4.68,41.72 -8.31,51.83 -2.78,-17.62 -0.01,-34.89 8.31,-51.83z"/>
  <path class="fil6" d="M540.08 1498.65c17.6,-53.46 -12.41,-65.33 -6.98,-102.25 -25.71,44.19 -23.38,78.28 6.98,102.25z"/>
  <path class="fil10" d="M529.03 1413.9c4.18,24.46 5.24,41.98 3.2,52.56 -8.52,-16.93 -9.59,-34.45 -3.2,-52.56z"/>
  <path class="fil3" d="M918.42 1492.14c51.15,-57.61 106.01,-72.58 155.74,-36.39 -33.8,29.4 -88.66,44.36 -155.74,36.39z"/>
  <path class="fil8" d="M917.28 1491.13c26.08,-29.37 53.17,-47.77 80.1,-54.06 26.46,-6.18 52.72,-0.71 77.67,17.46l1.55 1.12 -1.44 1.25c-17.48,15.21 -40.52,26.59 -67.92,32.99 -26.06,6.09 -56.08,7.67 -89,3.76l-2.89 -0.34 1.93 -2.18zm80.79 -51.09c-25.63,5.99 -51.51,23.3 -76.55,50.92 31.42,3.44 60.08,1.79 85.03,-4.03 26.14,-6.11 48.22,-16.82 65.15,-31.07 -23.72,-16.71 -48.6,-21.67 -73.63,-15.82z"/>
  <path class="fil11" d="M937.18 1482.8c31.64,-27.7 83.83,-39.83 111.71,-27.72 -31.35,-5.48 -68.59,3.75 -111.71,27.72z"/>
  <path class="fil3" d="M1025.65 1416.92c30.43,-53.99 70.04,-74.49 113.35,-53.34 -21.39,28.75 -61.01,49.25 -113.35,53.34z"/>
  <path class="fil8" d="M1024.63 1416.3c15.52,-27.53 33.44,-46.45 53.04,-55.67 19.26,-9.06 40.1,-8.79 61.83,1.83l1.35 0.66 -0.91 1.22c-11.07,14.87 -26.95,27.56 -46.89,36.94 -18.97,8.93 -41.63,14.87 -67.31,16.88l-2.26 0.18 1.15 -2.04zm54.01 -53.41c-18.66,8.78 -35.81,26.64 -50.8,52.61 24.47,-2.15 46.08,-7.94 64.24,-16.48 19.03,-8.95 34.27,-20.95 45.06,-34.97 -20.58,-9.65 -40.28,-9.73 -58.5,-1.16z"/>
  <path class="fil11" d="M1038.57 1406.54c20,-27.06 58,-44.89 81.06,-39.56 -24.72,0.51 -51.75,13.69 -81.06,39.56z"/>
  <path class="fil3" d="M1093.97 1328.23c3.97,-61.86 30.75,-97.53 78.95,-97.28 -6.79,35.19 -33.57,70.86 -78.95,97.28z"/>
  <path class="fil8" d="M1092.78 1328.1c2.03,-31.53 9.96,-56.36 23.61,-73.17 13.41,-16.53 32.31,-25.33 56.5,-25.2l1.49 0.01 -0.29 1.49c-3.51,18.2 -12.31,36.53 -26.19,53.64 -13.22,16.27 -31.04,31.47 -53.31,44.43l-1.96 1.14 0.15 -2.34zm25.46 -71.56c-12.99,16.02 -20.69,39.55 -22.92,69.45 21.11,-12.56 38.08,-27.16 50.72,-42.74 13.25,-16.32 21.78,-33.75 25.4,-51.07 -22.72,0.25 -40.51,8.73 -53.2,24.36z"/>
  <path class="fil11" d="M1101.1 1313.26c6.27,-33.06 32.76,-65.62 55.85,-70.83 -22.06,11.19 -40.68,34.8 -55.85,70.83z"/>
  <path class="fil3" d="M1120.15 1240.28c-18.29,-59.22 -5.95,-102.08 39.19,-118.99 6.17,35.31 -6.17,78.17 -39.19,118.99z"/>
  <path class="fil8" d="M1118.99 1240.59c-9.32,-30.19 -10.74,-56.21 -3.96,-76.79 6.66,-20.21 21.19,-35.15 43.84,-43.64l1.4 -0.53 0.26 1.51c3.19,18.26 1.49,38.51 -5.4,59.44 -6.56,19.91 -17.82,40.46 -34.02,60.49l-1.42 1.76 -0.7 -2.24zm-1.65 -75.93c-6.45,19.58 -5.27,44.32 3.28,73.05 15.26,-19.25 25.92,-38.92 32.2,-57.98 6.58,-19.97 8.35,-39.29 5.57,-56.76 -21.15,8.31 -34.76,22.56 -41.05,41.69z"/>
  <path class="fil11" d="M1121.49 1223.76c-5.9,-33.12 7.28,-72.98 27,-86.06 -16.63,18.31 -25.63,46.99 -27,86.06z"/>
  <path class="fil3" d="M1091.32 1150.61c-36.51,-50.09 -38.75,-94.63 -1.54,-125.27 17.29,31.39 19.52,75.94 1.54,125.27z"/>
  <path class="fil8" d="M1090.33 1151.27c-18.62,-25.53 -28.4,-49.69 -28.67,-71.35 -0.26,-21.27 8.64,-40.12 27.31,-55.5l1.16 -0.96 0.73 1.34c8.94,16.24 13.9,35.95 14.17,57.99 0.26,20.96 -3.72,44.04 -12.55,68.25l-0.77 2.12 -1.38 -1.89zm-26.21 -71.29c0.25,20.62 9.4,43.64 26.81,68.04 8.19,-23.16 11.89,-45.22 11.65,-65.29 -0.26,-21.03 -4.86,-39.87 -13.15,-55.5 -17.31,14.72 -25.56,32.62 -25.31,52.75z"/>
  <path class="fil11" d="M1087.22 1134.54c-16.33,-29.42 -16.79,-71.39 -2.37,-90.17 -9.8,22.72 -9.01,52.77 2.37,90.17z"/>
  <path class="fil3" d="M1049.83 1585.91c-22.94,-64.73 -9.51,-113.49 43.08,-135.74 8.12,38.95 -5.31,87.71 -43.08,135.74z"/>
  <path class="fil8" d="M1048.48 1586.34c-11.7,-33 -14,-61.94 -6.55,-85.41 7.32,-23.05 24.01,-40.82 50.4,-51.98l1.64 -0.7 0.34 1.66c4.2,20.14 2.7,42.88 -4.88,66.76 -7.21,22.71 -19.92,46.48 -38.46,70.05l-1.62 2.07 -0.87 -2.45zm-3.82 -84.63c-7.09,22.35 -5.1,49.87 5.66,81.3 17.44,-22.63 29.48,-45.38 36.38,-67.12 7.23,-22.79 8.83,-44.48 5.15,-63.78 -24.64,10.86 -40.27,27.79 -47.19,49.6z"/>
  <path class="fil11" d="M1050.99 1567.37c-7.75,-36.53 6.75,-81.99 29.59,-98.07 -19.08,21.67 -28.95,54.36 -29.59,98.07z"/>
  <path class="fil3" d="M1165.69 1500.99c-48.88,-41.56 -59.54,-85.81 -24.84,-125.56 24.57,27.4 35.23,71.64 24.84,125.56z"/>
  <path class="fil8" d="M1164.74 1501.89c-24.92,-21.18 -40,-43.11 -44.29,-64.82 -4.22,-21.33 1.94,-42.42 19.35,-62.37l1.08 -1.23 1.05 1.16c12.7,14.17 21.73,32.79 26.1,54.88 4.15,21.01 4.1,45.17 -1,71.63l-0.44 2.32 -1.85 -1.57zm-41.62 -65.35c4.09,20.66 18.27,41.6 41.67,61.94 4.6,-25.25 4.54,-48.32 0.56,-68.44 -4.17,-21.07 -12.64,-38.91 -24.52,-52.63 -16.06,18.97 -21.7,38.95 -17.71,59.13z"/>
  <path class="fil11" d="M1158.28 1485.82c-23.16,-25.64 -31.42,-67.72 -19.26,-90.07 -6.42,25.19 0,55.22 19.26,90.07z"/>
  <path class="fil3" d="M1235.95 1417.37c-55.39,-35.53 -72.31,-79.04 -42.5,-124.22 28.74,24.47 45.66,67.98 42.5,124.22z"/>
  <path class="fil8" d="M1235.11 1418.43c-28.24,-18.12 -46.59,-38.34 -53.94,-59.82 -7.21,-21.1 -3.85,-43.38 11.12,-66.06l0.92 -1.4 1.23 1.04c14.86,12.66 26.59,30.35 34.07,52.2 7.11,20.79 10.38,45.36 8.83,72.96l-0.14 2.42 -2.09 -1.34zm-51.29 -60.73c7,20.45 24.29,39.79 50.88,57.25 1.21,-26.3 -2.03,-49.75 -8.84,-69.65 -7.13,-20.85 -18.19,-37.82 -32.16,-50.13 -13.72,21.49 -16.71,42.57 -9.88,62.53z"/>
  <path class="fil11" d="M1226.34 1402.98c-27.07,-22.89 -41.25,-64.53 -31.96,-88.92 -3.07,26.49 7.58,56.13 31.96,88.92z"/>
  <path class="fil3" d="M1276.88 1298.2c-63.5,-17.31 -92.67,-53.76 -77.76,-105.8 34.75,14.75 63.93,51.2 77.76,105.8z"/>
  <path class="fil8" d="M1276.39 1299.46c-32.37,-8.83 -55.93,-22.62 -69.38,-40.91 -13.2,-17.98 -16.66,-40.25 -9.18,-66.36l0.46 -1.62 1.48 0.63c17.98,7.62 34.47,20.99 48.15,39.6 13.01,17.7 23.48,40.17 30.27,66.96l0.6 2.35 -2.4 -0.65zm-67.12 -42.58c12.8,17.42 35.09,30.69 65.68,39.39 -6.72,-25.46 -16.83,-46.86 -29.29,-63.81 -13.05,-17.76 -28.68,-30.64 -45.7,-38.2 -6.65,24.61 -3.19,45.62 9.31,62.62z"/>
  <path class="fil11" d="M1263.39 1287.35c-32.68,-13.73 -58.68,-49.22 -57.11,-75.27 5,26.19 24.04,51.28 57.11,75.27z"/>
  <path class="fil3" d="M1269.72 1136.39c-64.73,11.93 -106.81,-8.28 -115.93,-61.63 37.71,-1.78 79.8,18.42 115.93,61.63z"/>
  <path class="fil8" d="M1269.82 1137.74c-32.99,6.08 -60.2,3.86 -80.25,-6.8 -19.69,-10.47 -32.46,-29.04 -37.04,-55.82l-0.28 -1.66 1.6 -0.07c19.5,-0.92 40.16,3.97 60.55,14.81 19.4,10.32 38.58,26.02 56.31,47.22l1.56 1.86 -2.45 0.46zm-78.94 -9.28c19.09,10.15 44.92,12.45 76.27,7.02 -17.1,-20.02 -35.49,-34.93 -54.06,-44.8 -19.46,-10.35 -39.13,-15.18 -57.74,-14.62 4.67,25.06 16.9,42.5 35.53,52.4z"/>
  <path class="fil11" d="M1252.86 1132.46c-35.4,1.79 -74.22,-18.92 -84.1,-43.07 15.87,21.43 43.9,35.79 84.1,43.07z"/>
  <path class="fil3" d="M1229.68 1044.09c-63.85,15.96 -107.13,-1.55 -119.58,-54.23 37.52,-4.15 80.8,13.37 119.58,54.23z"/>
  <path class="fil8" d="M1229.87 1045.42c-32.56,8.15 -59.85,7.64 -80.53,-1.74 -20.31,-9.21 -34.22,-26.94 -40.47,-53.38l-0.39 -1.64 1.6 -0.18c19.4,-2.14 40.33,1.45 61.36,10.99 20.01,9.07 40.14,23.54 59.17,43.59l1.67 1.76 -2.41 0.6zm-79.37 -4.29c19.68,8.92 45.61,9.6 76.55,2.21 -18.32,-18.91 -37.61,-32.63 -56.76,-41.32 -20.07,-9.1 -40.01,-12.68 -58.55,-10.96 6.24,24.72 19.54,41.35 38.76,50.07z"/>
  <path class="fil11" d="M1212.6 1041.22c-35.22,4.01 -75.26,-14.22 -86.63,-37.7 17.17,20.39 46.05,32.96 86.63,37.7z"/>
  <ellipse class="fil12" cx="1033.13" cy="1479.3" rx="11.02" ry="11.03"/>
  <ellipse class="fil12" cx="1042.94" cy="1495.4" rx="11.02" ry="11.03"/>
  <ellipse class="fil12" cx="1061.84" cy="1463.15" rx="11.02" ry="11.03"/>
  <ellipse class="fil12" cx="1146.95" cy="1366.17" rx="11.02" ry="11.03"/>
  <ellipse class="fil12" cx="1173.82" cy="1370.22" rx="11.02" ry="11.03"/>
  <ellipse class="fil12" cx="1167.65" cy="1337.62" rx="11.02" ry="11.03"/>
  <ellipse class="fil12" cx="1141.09" cy="1337.85" rx="11.02" ry="11.03"/>
  <ellipse class="fil12" cx="1187.11" cy="1288.1" rx="11.02" ry="11.03"/>
  <ellipse class="fil12" cx="1170.2" cy="1271.3" rx="11.02" ry="11.03"/>
  <ellipse class="fil12" cx="1181.68" cy="1243.25" rx="11.02" ry="11.03"/>
  <ellipse class="fil12" cx="1168.93" cy="1194.78" rx="11.02" ry="11.03"/>
  <ellipse class="fil12" cx="1172.75" cy="1170.55" rx="11.02" ry="11.03"/>
  <ellipse class="fil12" cx="1185.51" cy="1147.59" rx="11.02" ry="11.03"/>
  <ellipse class="fil12" cx="1160.53" cy="1121.14" rx="11.02" ry="11.03"/>
  <ellipse class="fil12" cx="1125.28" cy="1035.93" rx="11.02" ry="11.03"/>
  <ellipse class="fil12" cx="1095.05" cy="1033.32" rx="11.02" ry="11.03"/>
  <ellipse class="fil12" cx="1075.55" cy="1027.7" rx="11.02" ry="11.03"/>
  <ellipse class="fil12" cx="1070.72" cy="1000.92" rx="11.02" ry="11.03"/>
  <ellipse class="fil12" cx="1098.56" cy="1008.85" rx="11.02" ry="11.03"/>
  <ellipse class="fil12" cx="1092.89" cy="988.02" rx="11.02" ry="11.03"/>
  <path class="fil13" d="M616.04 1639.09c-1.46,0.83 -3.32,0.31 -4.15,-1.14 -0.82,-1.46 -0.31,-3.32 1.15,-4.15 24.55,-13.96 40.95,-21.71 49.65,-23.29 12.93,-2.34 14.5,3.81 5.37,18.38 -2.12,3.39 -1.77,4.68 0.29,4.49 5.53,-0.5 15.34,-4.08 27.52,-9.42 17.19,-7.53 26.95,-10.3 32.1,-10.43 3.08,-0.07 5.09,0.76 6.28,2.18 1.37,1.65 1.48,3.67 0.78,5.82 -0.94,2.92 -3.62,6.33 -5.88,8.77 -0.17,0.18 -4.72,-0.14 -2.55,0.1 3.4,0.39 12.57,-1.04 32.97,-5.88 15.73,-3.74 23.81,-8.08 27.57,-10.1 1.63,-0.88 2.64,-1.42 3.69,-1.52l0.1 -0.01c5.03,-0.44 4.42,1.69 2.77,7.1 -0.38,1.27 -0.91,2.99 -1.55,5.52l-0.02 0.11c0.62,0.3 1.71,0.47 3.42,0.43 3.66,-0.09 9.37,-1.16 17.98,-3.79 10.86,-3.31 17.77,-4.87 20.69,-4.14 1.61,0.4 2.71,0.99 3.3,1.77 6.93,-7.13 12.16,-13.06 15.64,-17.21 1.94,-2.67 3.33,-4.49 4.19,-5.56l1.09 -1.35c3.39,-5.75 6.65,-8.96 8.76,-9.86 2.79,-2.56 3.45,-1.93 2.34,1.16 0.12,1.99 -1.53,6.01 -5.89,11.83l-0.36 0.64c-0.21,0.37 -0.94,1.4 -2.15,2.94l-3.1 3.83c-1.74,2.39 -3.94,5.49 -6.61,9.38l-0.14 0.2c-2.62,3.9 -3.36,7.61 -2.72,10.72 0.42,2.05 1.47,3.88 2.98,5.32l0.09 0.09c1.56,1.47 3.62,2.56 6,3.13 4.7,1.12 10.64,0.26 16.79,-3.54 10.16,-6.29 19,-7.11 25.52,-5.39 2.42,-2.07 5.73,-3.92 10.09,-5.27 7.15,-2.21 13.02,-4.1 18.3,-6.3 5.13,-2.14 9.69,-4.58 14.33,-7.95 1.36,-0.99 3.27,-0.68 4.25,0.68 0.99,1.36 0.68,3.27 -0.68,4.25 -5.04,3.66 -10,6.32 -15.57,8.65 -5.43,2.26 -11.48,4.21 -18.85,6.49 -2.18,0.67 -4,1.47 -5.49,2.35 1.48,1.03 2.7,2.22 3.64,3.47 1.42,1.9 2.22,3.99 2.32,6 0.16,3.34 -1.46,6.35 -5.17,8.02 -3.69,1.66 -7.17,0.78 -9.61,-1.54 -1.27,-1.21 -2.23,-2.82 -2.73,-4.66 -0.5,-1.76 -0.58,-3.75 -0.14,-5.77 0.22,-1 0.56,-2.02 1.06,-3.03 -4.8,-0.49 -10.96,0.77 -18.08,5.17 -7.64,4.73 -15.24,5.75 -21.38,4.28 -3.46,-0.82 -6.47,-2.44 -8.79,-4.64l-0.09 -0.08c-2.4,-2.29 -4.07,-5.21 -4.75,-8.52 -0.28,-1.31 -0.39,-2.69 -0.33,-4.1l-4.98 5.05c-5.82,5.79 -10.16,9.16 -12.53,10.46l-0.19 0.1c-1.59,0.84 -3,0.98 -4.09,0.5 -2.19,-0.97 -2.69,-2.78 -1.28,-5.26 0.82,-1.44 3.05,-3.96 6.83,-7.26 3.01,-2.63 8.3,-2.88 6.71,-3.28 -1.73,-0.43 -7.66,1.06 -17.46,4.05 -9.15,2.79 -15.41,3.94 -19.57,4.05 -2.89,0.06 -4.97,-0.37 -6.42,-1.12 -2.06,-1.06 -3.03,-2.67 -3.24,-4.54 -0.09,-0.81 -0.02,-1.63 0.18,-2.43l0.71 -2.65c-4.78,2.4 -12.89,5.95 -25.98,9.06 -21.14,5.02 -30.98,6.47 -35.03,6.01 -9.63,-1.09 -5.72,-5.49 -1.25,-10.31 1.82,-1.95 3.93,-4.58 4.55,-6.49 0.08,-0.17 0.49,0.15 0.33,-0.04 -0.02,-0.03 -0.46,-0.03 -1.46,-0.01 -4.44,0.11 -13.41,2.74 -29.81,9.93 -12.72,5.57 -23.14,9.33 -29.4,9.89 -9.71,0.89 -12.71,-3.01 -5.99,-13.75 4.26,-6.8 4.61,-9.87 0.86,-9.19 -7.99,1.45 -23.76,8.97 -47.73,22.6zm289.06 -2.85c-0.78,-1.06 -1.95,-2.06 -3.43,-2.86 -0.54,0.85 -0.89,1.72 -1.07,2.55 -0.22,1.04 -0.19,2.02 0.04,2.86 0.21,0.76 0.58,1.41 1.07,1.87 0.71,0.68 1.77,0.92 2.93,0.4 1.12,-0.5 1.61,-1.32 1.57,-2.18 -0.04,-0.8 -0.42,-1.73 -1.11,-2.64z"/>
  <path class="fil5" d="M510.15 1687.03c42.1,16.53 63.29,50.49 63.56,101.89 -55.43,1.76 -95.11,-11.69 -119.04,-40.35 -11.64,25.34 -27.11,41.82 -46.41,49.43 -10.75,-33.92 -4.7,-60.49 18.16,-79.7 -23.69,4.85 -43.87,4.18 -60.53,-2.01 50.75,-42.74 98.84,-52.49 144.26,-29.26z"/>
  <path class="fil1" d="M511.6 1683.51c21.8,8.58 38.22,21.7 49.25,39.38 10.96,17.57 16.51,39.58 16.65,66.01 0.01,2.06 -1.63,3.75 -3.67,3.81 -28.19,0.9 -52.42,-2.09 -72.68,-8.95 -18.45,-6.26 -33.64,-15.72 -45.54,-28.39 -5.41,10.74 -11.58,19.8 -18.5,27.17 -8.13,8.65 -17.29,14.99 -27.46,19 -1.96,0.76 -4.17,-0.2 -4.93,-2.16l-0.09 -0.24c-5.58,-17.6 -6.78,-33.39 -3.6,-47.34 2.34,-10.3 7.05,-19.55 14.11,-27.74 -7.63,1.01 -14.88,1.4 -21.74,1.17 -10.5,-0.35 -20.12,-2.15 -28.83,-5.39 -1.97,-0.73 -2.97,-2.92 -2.23,-4.88 0.25,-0.7 0.7,-1.28 1.25,-1.69 51.88,-43.64 101.22,-53.55 148.01,-29.76zm42.78 43.4c-10.14,-16.26 -25.35,-28.38 -45.61,-36.33l-0.34 -0.17c-42.34,-21.65 -87.25,-13.52 -134.73,24.38 6.18,1.66 12.83,2.61 19.94,2.85 9.73,0.32 20.34,-0.69 31.82,-3.02 1.38,-0.36 2.91,0.07 3.88,1.24 1.35,1.61 1.14,4.01 -0.47,5.36 -10.78,9.06 -17.6,19.81 -20.43,32.24 -2.62,11.56 -1.88,24.68 2.25,39.35 7.61,-3.61 14.58,-8.77 20.88,-15.48 7.41,-7.9 13.94,-17.95 19.56,-30.16 0.22,-0.57 0.59,-1.1 1.1,-1.52 1.61,-1.35 4.01,-1.14 5.36,0.47 11.5,13.79 26.84,23.93 46.01,30.43 18.52,6.28 40.6,9.16 66.25,8.66 -0.6,-23.3 -5.76,-42.74 -15.47,-58.3z"/>
  <path class="fil5" d="M1048.85 1687.03c-42.1,16.53 -63.29,50.49 -63.56,101.89 55.43,1.76 95.11,-11.69 119.04,-40.35 11.64,25.34 27.11,41.82 46.41,49.43 10.75,-33.92 4.7,-60.49 -18.16,-79.7 23.69,4.85 43.87,4.18 60.53,-2.01 -50.75,-42.74 -98.84,-52.49 -144.26,-29.26z"/>
  <path class="fil1" d="M1050.23 1690.57c-20.26,7.96 -35.47,20.08 -45.61,36.34 -9.71,15.56 -14.87,35 -15.47,58.3 25.65,0.5 47.73,-2.38 66.25,-8.66 19.17,-6.5 34.51,-16.64 46.01,-30.43 1.35,-1.61 3.75,-1.82 5.36,-0.47 0.51,0.42 0.88,0.95 1.1,1.52 5.62,12.21 12.15,22.26 19.56,30.16 6.3,6.71 13.27,11.87 20.88,15.48 4.13,-14.67 4.87,-27.79 2.25,-39.35 -2.83,-12.43 -9.65,-23.18 -20.43,-32.24 -1.61,-1.35 -1.82,-3.75 -0.47,-5.36 0.97,-1.17 2.5,-1.6 3.88,-1.24 11.48,2.33 22.09,3.34 31.82,3.02 7.11,-0.24 13.76,-1.19 19.94,-2.85 -47.48,-37.9 -92.39,-46.03 -134.73,-24.38l-0.34 0.16zm-52.08 32.32c11.03,-17.68 27.45,-30.8 49.25,-39.38 46.79,-23.79 96.13,-13.88 148.01,29.76 0.55,0.41 1,0.99 1.25,1.69 0.74,1.96 -0.26,4.15 -2.23,4.88 -8.71,3.24 -18.33,5.04 -28.83,5.39 -6.86,0.23 -14.11,-0.16 -21.74,-1.17 7.06,8.19 11.77,17.44 14.11,27.74 3.18,13.95 1.98,29.74 -3.6,47.34l-0.09 0.24c-0.76,1.96 -2.97,2.92 -4.93,2.16 -10.17,-4.01 -19.33,-10.35 -27.46,-19 -6.92,-7.37 -13.09,-16.43 -18.5,-27.17 -11.9,12.67 -27.09,22.13 -45.54,28.39 -20.26,6.86 -44.49,9.85 -72.68,8.95 -2.04,-0.06 -3.68,-1.75 -3.67,-3.81 0.13,-26.43 5.69,-48.44 16.65,-66.01z"/>
  <path class="fil7" d="M520.24 1755.63c42.5,2.91 49.71,11.97 53.47,33.29l10.08 -102.9 -45.56 -35.48c-51.44,-16.43 -76.92,101.05 -17.99,105.09z"/>
  <path class="fil7" d="M1038.76 1755.63c-42.5,2.91 -49.71,11.97 -53.47,33.29l-10.08 -102.9 45.56 -35.48c51.44,-16.43 76.92,101.05 17.99,105.09z"/>
  <path class="fil5" d="M495.08 1709.06c-15.88,-42.71 31.1,-64.68 43.15,-58.52 154.19,78.93 328.35,78.93 482.54,0 12.05,-6.16 59.03,15.81 43.15,58.52 -111.2,107.46 -457.64,107.46 -568.84,0z"/>
  <path class="fil1" d="M491.47 1710.27c-5.51,-14.93 -3.89,-27.59 1.26,-37.66 3.17,-6.18 7.65,-11.35 12.63,-15.43 4.95,-4.06 10.41,-7.08 15.53,-8.98 7.61,-2.83 14.8,-3.22 19.07,-1.04 76.53,39.18 158.03,58.77 239.54,58.77 81.51,0 163.01,-19.59 239.54,-58.77 4.27,-2.18 11.46,-1.8 19.07,1.04 5.13,1.9 10.59,4.92 15.53,8.98 4.98,4.08 9.47,9.24 12.63,15.43 5.17,10.09 6.78,22.8 1.21,37.77 -0.2,0.56 -0.52,1.03 -0.92,1.42 -56.34,54.44 -171.78,81.66 -287.06,81.66 -115.28,0 -230.72,-27.22 -287.06,-81.66 -0.46,-0.44 -0.78,-0.97 -0.97,-1.53zm8.02 -34.21c-4.19,8.18 -5.51,18.53 -1.15,30.85 55.09,52.62 168.04,78.93 281.16,78.93 113.11,0 226.07,-26.31 281.16,-78.93 4.36,-12.32 3.04,-22.67 -1.15,-30.85 -2.65,-5.17 -6.46,-9.54 -10.69,-13.01 -4.27,-3.5 -8.96,-6.1 -13.36,-7.73 -5.66,-2.11 -10.55,-2.63 -12.97,-1.4 -77.65,39.76 -160.33,59.63 -242.99,59.63 -82.66,0 -165.34,-19.87 -242.99,-59.63 -2.42,-1.23 -7.31,-0.71 -12.97,1.4 -4.4,1.63 -9.09,4.23 -13.36,7.73 -4.24,3.48 -8.04,7.84 -10.69,13.01z"/>
  <path class="fil1" d="M532.47 1697.72l5.44 2.75c-0.78,1.9 -0.96,3.55 -0.53,4.95 0.42,1.4 1.44,2.61 3.03,3.62 1.68,1.07 3.18,1.52 4.49,1.35 1.3,-0.17 2.26,-0.74 2.87,-1.69 0.39,-0.62 0.55,-1.26 0.46,-1.92 -0.08,-0.66 -0.47,-1.43 -1.16,-2.32 -0.48,-0.6 -1.64,-1.86 -3.47,-3.79 -2.35,-2.49 -3.78,-4.6 -4.26,-6.34 -0.68,-2.45 -0.36,-4.7 0.95,-6.76 0.84,-1.33 2.01,-2.34 3.49,-3.02 1.49,-0.68 3.12,-0.88 4.92,-0.58 1.79,0.29 3.68,1.06 5.68,2.33 3.25,2.06 5.24,4.34 5.97,6.84 0.72,2.49 0.36,4.96 -1.09,7.43l-5.38 -3.17c0.63,-1.48 0.76,-2.75 0.4,-3.8 -0.36,-1.05 -1.27,-2.05 -2.74,-2.98 -1.51,-0.96 -2.9,-1.4 -4.15,-1.32 -0.81,0.06 -1.43,0.42 -1.86,1.1 -0.39,0.61 -0.47,1.31 -0.22,2.08 0.3,0.98 1.53,2.58 3.7,4.8 2.17,2.22 3.65,4.05 4.46,5.47 0.81,1.42 1.21,2.9 1.19,4.46 -0.03,1.56 -0.56,3.16 -1.6,4.8 -0.95,1.49 -2.25,2.63 -3.9,3.4 -1.66,0.78 -3.45,1.01 -5.36,0.67 -1.92,-0.32 -4,-1.21 -6.26,-2.64 -3.29,-2.09 -5.33,-4.45 -6.13,-7.09 -0.8,-2.63 -0.45,-5.51 1.06,-8.63zm45.88 35.69l-6.08 -2.89 0.61 -7.47 -11.17 -5.3 -5.32 5.24 -5.97 -2.83 24.02 -22.72 5.96 2.83 -2.05 33.14zm-5.07 -15.94l1.02 -12.14 -8.65 8.52 7.63 3.62zm8.37 16.67l10.1 -29.11 5.7 1.98 5.22 23.66 6.77 -19.51 5.45 1.89 -10.1 29.12 -5.89 -2.04 -5.16 -23.24 -6.64 19.15 -5.45 -1.9zm46.05 2.78l1.28 -5.05 12.98 3.29 -3.02 11.92c-1.57,0.91 -3.68,1.53 -6.31,1.86 -2.63,0.32 -5.18,0.17 -7.63,-0.45 -3.13,-0.79 -5.68,-2.13 -7.67,-4.03 -1.99,-1.91 -3.25,-4.23 -3.8,-6.97 -0.56,-2.73 -0.46,-5.55 0.26,-8.42 0.79,-3.11 2.15,-5.72 4.06,-7.81 1.92,-2.09 4.3,-3.47 7.14,-4.13 2.17,-0.51 4.67,-0.4 7.52,0.32 3.71,0.94 6.41,2.45 8.1,4.54 1.69,2.09 2.48,4.58 2.38,7.49l-6.29 -0.4c-0.05,-1.57 -0.54,-2.94 -1.49,-4.09 -0.94,-1.14 -2.27,-1.93 -4.01,-2.37 -2.63,-0.66 -4.94,-0.36 -6.91,0.93 -1.98,1.28 -3.38,3.56 -4.22,6.86 -0.9,3.55 -0.78,6.41 0.33,8.58 1.14,2.17 2.97,3.59 5.52,4.23 1.26,0.32 2.59,0.39 3.98,0.22 1.39,-0.18 2.63,-0.51 3.72,-0.98l0.96 -3.79 -6.88 -1.75zm32.82 -12.29l12.14 2.13c2.41,0.42 4.18,0.83 5.32,1.23 1.15,0.41 2.14,1.02 2.96,1.81 0.82,0.79 1.45,1.77 1.89,2.94 0.43,1.16 0.54,2.4 0.31,3.7 -0.25,1.42 -0.86,2.66 -1.83,3.7 -0.97,1.06 -2.16,1.76 -3.57,2.12 1.75,0.87 3,2.04 3.77,3.51 0.76,1.48 0.99,3.09 0.68,4.85 -0.24,1.38 -0.79,2.67 -1.67,3.87 -0.87,1.19 -1.93,2.08 -3.18,2.67 -1.25,0.58 -2.7,0.83 -4.36,0.72 -1.04,-0.07 -3.52,-0.43 -7.43,-1.08l-10.34 -1.81 5.31 -30.36zm5.26 6.12l-1.22 7 4.01 0.7c2.39,0.42 3.87,0.64 4.47,0.67 1.06,0.06 1.95,-0.15 2.66,-0.65 0.7,-0.49 1.14,-1.23 1.31,-2.2 0.17,-0.94 0.03,-1.74 -0.38,-2.42 -0.41,-0.68 -1.12,-1.16 -2.11,-1.46 -0.6,-0.18 -2.34,-0.52 -5.22,-1.02l-3.52 -0.62zm-2.1 12.04l-1.43 8.14 5.69 1c2.2,0.38 3.62,0.56 4.23,0.55 0.95,-0.01 1.76,-0.28 2.44,-0.83 0.69,-0.55 1.13,-1.35 1.31,-2.43 0.17,-0.92 0.08,-1.73 -0.25,-2.44 -0.33,-0.72 -0.89,-1.3 -1.67,-1.73 -0.79,-0.44 -2.58,-0.9 -5.37,-1.39l-4.95 -0.87zm25.98 -13.21l6.2 0.77 -2.06 16.57c-0.33,2.64 -0.46,4.35 -0.41,5.14 0.1,1.29 0.6,2.37 1.49,3.25 0.89,0.89 2.19,1.43 3.9,1.64 1.73,0.22 3.08,0.03 4.05,-0.58 0.98,-0.61 1.61,-1.42 1.92,-2.45 0.31,-1.02 0.62,-2.74 0.92,-5.16l2.11 -16.93 6.19 0.77 -2 16.08c-0.46,3.68 -0.95,6.26 -1.47,7.73 -0.52,1.47 -1.3,2.68 -2.32,3.61 -1.02,0.94 -2.32,1.62 -3.89,2.05 -1.58,0.43 -3.57,0.5 -5.98,0.2 -2.92,-0.36 -5.08,-0.97 -6.5,-1.83 -1.42,-0.87 -2.5,-1.89 -3.24,-3.08 -0.74,-1.19 -1.17,-2.39 -1.3,-3.61 -0.19,-1.8 -0.06,-4.42 0.36,-7.84l2.03 -16.33zm26.99 34.12l2.51 -30.71 9.32 0.76 3.79 21.4 7.16 -20.51 9.33 0.76 -2.51 30.72 -5.74 -0.47 1.95 -24.18 -8.03 23.68 -5.98 -0.48 -4.05 -24.68 -2 24.18 -5.75 -0.47zm35.64 2.3l1.06 -30.8 6.24 0.21 -1.06 30.8 -6.24 -0.21zm24.13 0.6l-0.21 -30.82 13.11 -0.09c3.29,-0.02 5.69,0.24 7.19,0.79 1.5,0.54 2.7,1.51 3.6,2.92 0.91,1.42 1.37,3.03 1.38,4.85 0.02,2.32 -0.64,4.23 -1.99,5.74 -1.34,1.52 -3.36,2.48 -6.06,2.89 1.35,0.77 2.46,1.63 3.34,2.56 0.88,0.94 2.07,2.6 3.56,4.99l3.8 5.98 -7.44 0.05 -4.51 -6.7c-1.61,-2.38 -2.72,-3.87 -3.32,-4.5 -0.59,-0.61 -1.22,-1.03 -1.88,-1.26 -0.67,-0.22 -1.72,-0.33 -3.15,-0.32l-1.26 0.01 0.08 12.87 -6.24 0.04zm6.12 -17.82l4.61 -0.03c2.98,-0.02 4.84,-0.16 5.58,-0.42 0.74,-0.25 1.33,-0.69 1.74,-1.32 0.42,-0.62 0.62,-1.39 0.61,-2.32 0,-1.04 -0.29,-1.87 -0.84,-2.51 -0.56,-0.64 -1.35,-1.03 -2.35,-1.19 -0.51,-0.07 -2.03,-0.09 -4.54,-0.08l-4.86 0.04 0.05 7.83zm23.18 -13.43l6.23 -0.36 0.96 16.68c0.15,2.65 0.33,4.35 0.53,5.12 0.34,1.25 1.02,2.23 2.05,2.93 1.04,0.71 2.42,1.01 4.13,0.91 1.74,-0.1 3.04,-0.53 3.89,-1.31 0.84,-0.77 1.32,-1.68 1.44,-2.75 0.12,-1.06 0.11,-2.8 -0.03,-5.24l-0.99 -17.03 6.24 -0.36 0.93 16.18c0.22,3.69 0.2,6.32 -0.05,7.86 -0.25,1.54 -0.79,2.87 -1.62,3.98 -0.84,1.1 -2,2 -3.46,2.71 -1.48,0.71 -3.42,1.14 -5.85,1.28 -2.93,0.17 -5.17,-0.04 -6.72,-0.63 -1.55,-0.6 -2.8,-1.41 -3.74,-2.45 -0.95,-1.03 -1.58,-2.13 -1.93,-3.31 -0.51,-1.74 -0.86,-4.33 -1.06,-7.78l-0.95 -16.43zm37.01 28.36l-10.46 -29.88 6.38 -0.68 6.79 20.57 3.36 -21.64 7.37 -0.78 7.63 20.83 2.39 -21.9 6.22 -0.66 -4.13 31.43 -6.62 0.7 -8.48 -22.27 -3.65 23.56 -6.8 0.72zm61.14 -8.74l-6.63 1.16 -3.83 -6.45 -12.17 2.13 -1.32 7.35 -6.5 1.14 6.48 -32.42 6.49 -1.13 17.48 28.22zm-13.35 -10.07l-6.18 -10.5 -2.14 11.95 8.32 -1.45zm29.93 -25.41l6.05 -1.53 4.76 18.94c0.63,2.47 0.89,4.43 0.79,5.88 -0.15,1.88 -0.85,3.55 -2.12,5 -1.27,1.43 -3.16,2.47 -5.68,3.1 -2.95,0.74 -5.42,0.5 -7.42,-0.76 -2.01,-1.24 -3.42,-3.46 -4.24,-6.65l5.55 -2.1c0.5,1.68 1.05,2.83 1.66,3.42 0.91,0.91 2.03,1.2 3.35,0.87 1.33,-0.34 2.18,-0.96 2.53,-1.87 0.36,-0.9 0.24,-2.57 -0.37,-4.98l-4.86 -19.32zm10.92 -2.63l5.96 -1.85 4.93 15.96c0.79,2.53 1.37,4.14 1.75,4.85 0.62,1.13 1.52,1.91 2.69,2.34 1.18,0.44 2.59,0.41 4.23,-0.1 1.67,-0.52 2.82,-1.25 3.46,-2.2 0.64,-0.96 0.88,-1.96 0.74,-3.02 -0.14,-1.06 -0.57,-2.75 -1.29,-5.09l-5.04 -16.29 5.96 -1.84 4.79 15.48c1.1,3.53 1.71,6.08 1.84,7.64 0.13,1.56 -0.07,2.98 -0.63,4.25 -0.54,1.27 -1.45,2.43 -2.7,3.47 -1.26,1.04 -3.05,1.92 -5.37,2.64 -2.8,0.87 -5.03,1.21 -6.68,1 -1.64,-0.2 -3.05,-0.69 -4.21,-1.47 -1.17,-0.78 -2.05,-1.7 -2.67,-2.76 -0.91,-1.56 -1.88,-4 -2.9,-7.29l-4.86 -15.72zm38.69 19.92l-11.12 -28.74 12.23 -4.73c3.07,-1.19 5.4,-1.79 7,-1.81 1.59,-0.03 3.06,0.46 4.4,1.45 1.35,1 2.35,2.35 3.01,4.05 0.84,2.16 0.9,4.18 0.18,6.07 -0.72,1.89 -2.27,3.51 -4.64,4.85 1.53,0.25 2.87,0.65 4.02,1.21 1.16,0.57 2.86,1.7 5.1,3.4l5.67 4.25 -6.93 2.68 -6.59 -4.66c-2.36,-1.65 -3.92,-2.66 -4.71,-3.03 -0.77,-0.36 -1.5,-0.54 -2.2,-0.51 -0.71,0.02 -1.73,0.29 -3.06,0.81l-1.18 0.46 4.64 12 -5.82 2.25zm-0.59 -18.83l4.29 -1.66c2.79,-1.08 4.48,-1.87 5.08,-2.37 0.6,-0.5 0.99,-1.12 1.16,-1.85 0.17,-0.72 0.08,-1.52 -0.25,-2.39 -0.38,-0.97 -0.94,-1.64 -1.69,-2.05 -0.74,-0.39 -1.62,-0.49 -2.61,-0.27 -0.5,0.11 -1.93,0.62 -4.28,1.53l-4.53 1.76 2.83 7.3zm54.04 -5.66l-5.98 3.09 -5.58 -5.01 -10.98 5.67 0.94 7.4 -5.86 3.03 -3.51 -32.87 5.86 -3.02 25.11 21.71zm-15.75 -5.62l-9.04 -8.17 1.54 12.04 7.5 -3.87zm18.16 3.54l-17.81 -25.15 5.09 -3.6 17.81 25.14 -5.09 3.61z"/>
  <path class="fil14" d="M202.41 119.67l46.56 0 0 90.65 72.89 0 0 29.55 -119.45 0 0 -120.2zm233.31 100.39l-52.81 0 -7.58 19.81 -47.57 0 56.77 -120.2 51.01 0 56.53 120.2 -48.8 0 -7.55 -19.81zm-9.87 -26.02l-16.46 -43.2 -16.54 43.2 33 0zm80.51 -74.37l61.48 0 23.42 73.14 23.49 -73.14 61.19 0 0 120.2 -38.13 0 0 -91.63 -29.42 91.63 -34.55 0 -29.35 -91.63 0 91.63 -38.13 0 0 -120.2zm199.04 0l77.52 0c16.89,0 29.53,3.19 37.96,9.6 8.39,6.4 12.6,15.52 12.6,27.36 0,12.14 -4.6,21.66 -13.76,28.48 -9.17,6.86 -23.17,10.27 -41.99,10.27l-25.56 0 0 44.49 -46.77 0 0 -120.2zm46.77 51.37l11.48 0c9.06,0 15.41,-1.26 19.06,-3.75 3.65,-2.49 5.48,-5.68 5.48,-9.57 0,-3.78 -1.58,-6.97 -4.78,-9.6 -3.16,-2.63 -9.12,-3.94 -17.9,-3.94l-13.34 0 0 26.86zm203.74 -51.37l46.56 0 0 71.6c0,7.08 -1.41,13.79 -4.18,20.09 -2.77,6.32 -7.13,11.83 -13.06,16.56 -5.94,4.73 -12.15,8.03 -18.65,9.96 -9.05,2.66 -19.94,4 -32.61,4 -7.34,0 -15.35,-0.42 -24.02,-1.23 -8.67,-0.81 -15.94,-2.43 -21.77,-4.87 -5.82,-2.43 -11.16,-5.87 -15.97,-10.35 -4.85,-4.48 -8.15,-9.09 -9.94,-13.85 -2.88,-7.64 -4.32,-14.41 -4.32,-20.31l0 -71.6 46.56 0 0 73.31c0,6.54 2.28,11.66 6.81,15.33 4.57,3.69 10.89,5.54 18.96,5.54 7.97,0 14.25,-1.82 18.82,-5.46 4.53,-3.61 6.81,-8.76 6.81,-15.41l0 -73.31zm77.74 0l43.5 0 56.56 66.37 0 -66.37 44.03 0 0 120.2 -44.03 0 -56.25 -66 0 66 -43.81 0 0 -120.2zm250.89 76.72l0 -25.01 72.05 0 0 51.11c-13.8,7.5 -25.98,12.62 -36.55,15.34 -10.6,2.71 -23.17,4.05 -37.71,4.05 -17.91,0 -32.51,-2.43 -43.78,-7.3 -11.27,-4.84 -20.01,-12.09 -26.23,-21.71 -6.21,-9.6 -9.3,-20.65 -9.3,-33.1 0,-13.12 3.4,-24.51 10.18,-34.22 6.77,-9.68 16.71,-17.04 29.81,-22.07 10.21,-3.89 23.98,-5.82 41.25,-5.82 16.64,0 29.11,1.2 37.36,3.61 8.28,2.4 15.13,6.12 20.57,11.19 5.45,5.06 9.55,11.47 12.29,19.22l-44.87 6.43c-1.86,-4.56 -4.99,-8.05 -9.41,-10.46 -4.42,-2.43 -10.04,-3.64 -16.92,-3.64 -10.18,0 -18.33,2.83 -24.4,8.48 -6.08,5.65 -9.1,14.6 -9.1,26.83 0,12.98 3.06,22.27 9.2,27.84 6.11,5.57 14.68,8.37 25.63,8.37 5.2,0 10.15,-0.59 14.89,-1.79 4.7,-1.21 10.11,-3.25 16.22,-6.1l0 -11.25 -31.18 0z"/>
 </g>
</svg>
